STARTFONT 2.3
FONT -FontForge-Courgette-Book-R-Normal--24-240-72-72-P-124-ISO10646-1
SIZE 24 72 72  2
FONTBOUNDINGBOX 32 31 -5 -7
COMMENT "Generated by fontforge, http://fontforge.sourceforge.net"
COMMENT "Copyright (c) 2012, Sorkin Type Co (www.sorkintype.com) with Reserved Font Name "Courgette"."
STARTPROPERTIES 41
FOUNDRY "FontForge"
FAMILY_NAME "Courgette"
WEIGHT_NAME "Book"
SLANT "R"
SETWIDTH_NAME "Normal"
ADD_STYLE_NAME ""
PIXEL_SIZE 24
POINT_SIZE 240
RESOLUTION_X 72
RESOLUTION_Y 72
SPACING "P"
AVERAGE_WIDTH 124
CHARSET_REGISTRY "ISO10646"
CHARSET_ENCODING "1"
FONTNAME_REGISTRY ""
CHARSET_COLLECTIONS "ISO8859-2 ISO8859-9 ISO8859-4 ISO10646-1"
BITS_PER_PIXEL 2
FONT_NAME "Courgette-Regular"
FACE_NAME "Courgette Regular"
COPYRIGHT "Copyright (c) 2012, Sorkin Type Co (www.sorkintype.com) with Reserved Font Name "Courgette"."
FONT_VERSION "1.002"
FONT_ASCENT 19
FONT_DESCENT 5
UNDERLINE_POSITION -2
UNDERLINE_THICKNESS 2
X_HEIGHT 11
CAP_HEIGHT 17
DEFAULT_CHAR 1
RAW_ASCENT 799
RAW_DESCENT 200
NORM_SPACE 7
RELATIVE_WEIGHT 40
RELATIVE_SETWIDTH 50
SUPERSCRIPT_X 0
SUPERSCRIPT_Y 11
SUPERSCRIPT_SIZE 15
SUBSCRIPT_X 0
SUBSCRIPT_Y 3
SUBSCRIPT_SIZE 15
AVG_LOWERCASE_WIDTH 119
AVG_UPPERCASE_WIDTH 140
ENDPROPERTIES
CHARS 407
STARTCHAR .null.dup1
ENCODING 0
SWIDTH 0 0
DWIDTH 0 0
BBX 1 1 0 0
BITMAP
00
ENDCHAR
STARTCHAR uni0001
ENCODING 1
SWIDTH 0 0
DWIDTH 0 0
BBX 1 1 0 0
BITMAP
00
ENDCHAR
STARTCHAR uni0002
ENCODING 2
SWIDTH 0 0
DWIDTH 0 0
BBX 1 1 0 0
BITMAP
00
ENDCHAR
STARTCHAR uni0003
ENCODING 3
SWIDTH 0 0
DWIDTH 0 0
BBX 1 1 0 0
BITMAP
00
ENDCHAR
STARTCHAR uni0004
ENCODING 4
SWIDTH 0 0
DWIDTH 0 0
BBX 1 1 0 0
BITMAP
00
ENDCHAR
STARTCHAR uni0005
ENCODING 5
SWIDTH 0 0
DWIDTH 0 0
BBX 1 1 0 0
BITMAP
00
ENDCHAR
STARTCHAR uni0006
ENCODING 6
SWIDTH 0 0
DWIDTH 0 0
BBX 1 1 0 0
BITMAP
00
ENDCHAR
STARTCHAR uni0007
ENCODING 7
SWIDTH 0 0
DWIDTH 0 0
BBX 1 1 0 0
BITMAP
00
ENDCHAR
STARTCHAR uni0008
ENCODING 8
SWIDTH 0 0
DWIDTH 0 0
BBX 1 1 0 0
BITMAP
00
ENDCHAR
STARTCHAR uni0009
ENCODING 9
SWIDTH 0 0
DWIDTH 0 0
BBX 1 1 0 0
BITMAP
00
ENDCHAR
STARTCHAR nonmarkingreturn
ENCODING 13
SWIDTH 0 0
DWIDTH 0 0
BBX 1 1 0 0
BITMAP
00
ENDCHAR
STARTCHAR uni0015
ENCODING 21
SWIDTH 0 0
DWIDTH 0 0
BBX 1 1 0 0
BITMAP
00
ENDCHAR
STARTCHAR uni0016
ENCODING 22
SWIDTH 0 0
DWIDTH 0 0
BBX 1 1 0 0
BITMAP
00
ENDCHAR
STARTCHAR uni0017
ENCODING 23
SWIDTH 0 0
DWIDTH 0 0
BBX 1 1 0 0
BITMAP
00
ENDCHAR
STARTCHAR uni0018
ENCODING 24
SWIDTH 0 0
DWIDTH 0 0
BBX 1 1 0 0
BITMAP
00
ENDCHAR
STARTCHAR uni0019
ENCODING 25
SWIDTH 0 0
DWIDTH 0 0
BBX 1 1 0 0
BITMAP
00
ENDCHAR
STARTCHAR space
ENCODING 32
SWIDTH 307 0
DWIDTH 7 0
BBX 1 1 0 0
BITMAP
00
ENDCHAR
STARTCHAR exclam
ENCODING 33
SWIDTH 417 0
DWIDTH 10 0
BBX 9 18 2 0
BITMAP
000B80
002F80
007F00
00FD00
01F800
02F400
03E000
07D000
0B8000
0F4000
0F0000
0E0000
0D0000
040000
140000
FE0000
FE0000
BC0000
ENDCHAR
STARTCHAR quotedbl
ENCODING 34
SWIDTH 437 0
DWIDTH 10 0
BBX 10 6 3 13
BITMAP
1F47D0
3F0FC0
7D1F40
B82E00
B02C00
502400
ENDCHAR
STARTCHAR numbersign
ENCODING 35
SWIDTH 725 0
DWIDTH 17 0
BBX 16 18 1 0
BITMAP
0000B42C
0001F0B8
0002E0F4
0003D1F0
0007C2E0
000B43C0
0BFFFFFF
0FFFFFFE
002D0F00
003C1E00
00781D00
7FFFFFF8
BFFFFFE0
00E07400
01D0B000
02C0E000
0381D000
07028000
ENDCHAR
STARTCHAR dollar
ENCODING 36
SWIDTH 545 0
DWIDTH 13 0
BBX 13 25 1 -3
BITMAP
00000140
00000780
00000F00
00001E00
0006FD00
002E5F40
00F80780
02E007C0
03D00BC0
07D00F80
07D03F40
07E0BE00
07F06400
03F80000
01FD0000
00BF0000
002F4000
280F8000
780B4000
BC0F0000
7E6D0000
1FE40000
0E000000
1D000000
1C000000
ENDCHAR
STARTCHAR percent
ENCODING 37
SWIDTH 876 0
DWIDTH 21 0
BBX 18 18 2 0
BITMAP
06F8000740
1FAE001F00
7D1F007D00
B82F01F400
F43E03E000
F07D0B8000
F5F42F0000
7FD07C0000
0501F40000
0003D0BF40
000F83E7C0
002E0B83D0
00B81F43D0
01F02E07C0
07D02E0B80
0F402D1F40
2D001E7D00
74000BE400
ENDCHAR
STARTCHAR ampersand
ENCODING 38
SWIDTH 563 0
DWIDTH 14 0
BBX 13 18 1 0
BITMAP
001BF800
00BE5B00
02F40740
0BD00780
0F801F40
1F40BF00
1F01FD00
1F006000
0BA90000
07FE0000
1FE00000
3F414140
BD0FFF40
F803FD00
F402D000
F807C000
BE6F4000
1BE40000
ENDCHAR
STARTCHAR quotesingle
ENCODING 39
SWIDTH 231 0
DWIDTH 6 0
BBX 5 6 3 13
BITMAP
1F40
3F00
7D00
B800
B000
5000
ENDCHAR
STARTCHAR parenleft
ENCODING 40
SWIDTH 478 0
DWIDTH 11 0
BBX 13 27 2 -6
BITMAP
00000B40
00007D00
0001F400
0007D000
001F4000
003D0000
00B80000
01F00000
03E00000
07C00000
0B800000
1F400000
1F000000
2E000000
3E000000
7D000000
7D000000
7D000000
7D000000
7D000000
3D000000
3E000000
2F000000
1F000000
0B800000
03D00000
00B00000
ENDCHAR
STARTCHAR parenright
ENCODING 41
SWIDTH 478 0
DWIDTH 11 0
BBX 13 27 -3 -6
BITMAP
0002D000
0001F000
0000B800
00003D00
00002E00
00001F00
00001F40
00001F40
00000F40
00000F40
00001F40
00001F40
00001F00
00002F00
00003E00
00007D00
0000BC00
0000F400
0001F000
0003D000
000B8000
001F0000
007D0000
00F40000
03D00000
1F400000
78000000
ENDCHAR
STARTCHAR asterisk
ENCODING 42
SWIDTH 518 0
DWIDTH 12 0
BBX 9 9 3 9
BITMAP
00B800
00F800
71F000
79DB80
2FFF80
0BE000
2EF400
747C00
502800
ENDCHAR
STARTCHAR plus
ENCODING 43
SWIDTH 617 0
DWIDTH 15 0
BBX 12 12 2 3
BITMAP
003400
007400
007400
007400
007400
FFFFFD
557954
007400
007400
007400
007400
007000
ENDCHAR
STARTCHAR comma
ENCODING 44
SWIDTH 312 0
DWIDTH 8 0
BBX 5 7 0 -3
BITMAP
1E00
3F40
1F40
1F00
1E00
7800
A000
ENDCHAR
STARTCHAR hyphen
ENCODING 45
SWIDTH 452 0
DWIDTH 11 0
BBX 7 2 2 6
BITMAP
BFFC
FFF8
ENDCHAR
STARTCHAR period
ENCODING 46
SWIDTH 270 0
DWIDTH 6 0
BBX 5 4 0 -1
BITMAP
2E00
7F40
7F00
1900
ENDCHAR
STARTCHAR slash
ENCODING 47
SWIDTH 405 0
DWIDTH 10 0
BBX 16 25 -2 -4
BITMAP
0000000A
0000002D
0000007C
000000F4
000002E0
000007C0
00000B80
00001F00
00003D00
00007800
0000F400
0002E000
0003C000
000B8000
001F0000
002D0000
00780000
00F40000
02E00000
03C00000
0B800000
1F000000
2D000000
78000000
A0000000
ENDCHAR
STARTCHAR zero
ENCODING 48
SWIDTH 621 0
DWIDTH 15 0
BBX 14 18 1 0
BITMAP
0001BE40
000BE7D0
002F01E0
00BC01F0
01F401F0
03E002F0
0BD002E0
0F8003E0
1F4007D0
2F000BC0
3E001F80
7D002F40
7C007E00
7C00BC00
7C02F400
3C07D000
2E6F4000
0BF80000
ENDCHAR
STARTCHAR one
ENCODING 49
SWIDTH 405 0
DWIDTH 10 0
BBX 9 18 1 0
BITMAP
000B40
007F80
02FF80
0FEF40
051F40
002F00
003E00
007C00
00B800
00F400
01F000
02D000
07C000
0B8000
0F0000
1D0000
380000
600000
ENDCHAR
STARTCHAR two
ENCODING 50
SWIDTH 524 0
DWIDTH 13 0
BBX 13 18 0 0
BITMAP
0006F800
003E6F00
00B80B80
01F00780
02F00B80
02F40F80
01F42F40
0050BE00
0002FC00
000BF000
002FC000
00BE0000
02F80000
07D00000
1F400000
3D006800
BFFFF800
756BE000
ENDCHAR
STARTCHAR three
ENCODING 51
SWIDTH 537 0
DWIDTH 13 0
BBX 12 18 1 0
BITMAP
001BE4
00BD7D
02E01F
07D01F
0BC01F
0BD02F
07D07E
0141FC
001BF0
00BF80
00FF40
0007C0
0007D0
7C07D0
F80BC0
F41F40
BDBD00
2FE400
ENDCHAR
STARTCHAR four
ENCODING 52
SWIDTH 529 0
DWIDTH 13 0
BBX 12 18 1 0
BITMAP
00B400
00F800
00F800
01F400
02F010
07E078
0BC0BC
1F80BC
2F00F8
7D02F0
B807F4
3FFFFD
055F80
001F00
002D00
007C00
00B400
00D000
ENDCHAR
STARTCHAR five
ENCODING 53
SWIDTH 540 0
DWIDTH 13 0
BBX 14 18 1 0
BITMAP
002E96D0
007FFFD0
00B86E40
00F40000
01E00000
03D00000
07EF9000
0FE6F400
0F40F800
0500F800
0000F800
0001F800
2802F400
B803F000
F40BD000
F01F4000
B9BD0000
1FE00000
ENDCHAR
STARTCHAR six
ENCODING 54
SWIDTH 554 0
DWIDTH 13 0
BBX 13 18 1 0
BITMAP
0001BE00
001F9B40
007D0780
01F40B80
02E03F40
07C02D00
0F800000
1F5FD000
2FB5F400
3FC0BC00
7F407C00
7E007C00
7D00BC00
7D00F800
7D02F000
3D07D000
1F6F4000
06F80000
ENDCHAR
STARTCHAR seven
ENCODING 55
SWIDTH 473 0
DWIDTH 11 0
BBX 11 18 2 0
BITMAP
3955B8
3FFFFC
1BE5B8
0001F0
0007D0
000F80
002F00
007D00
00F800
02F000
07D000
0B8000
1F4000
2F0000
3E0000
7D0000
7D0000
2C0000
ENDCHAR
STARTCHAR eight
ENCODING 56
SWIDTH 524 0
DWIDTH 13 0
BBX 13 18 1 0
BITMAP
001BE400
00B9BD00
01E02F00
03C01F40
07C01F40
07D02F00
03E03E00
03F0BC00
02FAF000
00FF8000
02FF0000
1FAF4000
3D0B8000
B807C000
B8038000
B8074000
7E6E0000
1BE40000
ENDCHAR
STARTCHAR nine
ENCODING 57
SWIDTH 554 0
DWIDTH 13 0
BBX 13 18 1 0
BITMAP
000BF400
007E7D00
01F41F00
07D01F40
0BC01F40
0F802F00
1F402F00
1F407F00
1F40FE00
0F87FD00
07FEBC00
0050B800
0001F400
1402E000
7C07C000
B81F4000
B9BD0000
2F900000
ENDCHAR
STARTCHAR colon
ENCODING 58
SWIDTH 312 0
DWIDTH 8 0
BBX 7 12 0 -1
BITMAP
0150
07F4
07F4
02E0
0000
0000
0000
0000
2E40
7F80
3F40
1900
ENDCHAR
STARTCHAR semicolon
ENCODING 59
SWIDTH 312 0
DWIDTH 8 0
BBX 7 15 0 -3
BITMAP
0150
03F4
07F4
02E0
0000
0000
0000
0000
1E00
3F40
1F40
1F00
1E00
7800
A000
ENDCHAR
STARTCHAR less
ENCODING 60
SWIDTH 637 0
DWIDTH 15 0
BBX 13 13 1 1
BITMAP
00000680
00002F40
0002F800
001FD000
01FE0000
1BE00000
7F400000
1FD00000
02F80000
006F8000
0007F400
00007E40
00000B40
ENDCHAR
STARTCHAR equal
ENCODING 61
SWIDTH 617 0
DWIDTH 15 0
BBX 12 7 2 5
BITMAP
BFFFFE
555554
000000
000000
000000
FFFFFE
555554
ENDCHAR
STARTCHAR greater
ENCODING 62
SWIDTH 606 0
DWIDTH 15 0
BBX 12 13 2 1
BITMAP
E40000
BE0000
1BE000
01FD00
002F90
0006F8
0000FE
0007F4
006F40
02F800
1F9000
BD0000
D00000
ENDCHAR
STARTCHAR question
ENCODING 63
SWIDTH 516 0
DWIDTH 12 0
BBX 11 18 2 0
BITMAP
006F90
01F9B4
03E038
07D07C
07D0B8
0282F4
000BE0
007F80
01FD00
07F000
0B8000
0F0000
090000
000000
BD0000
FE0000
FE0000
780000
ENDCHAR
STARTCHAR at
ENCODING 64
SWIDTH 905 0
DWIDTH 22 0
BBX 21 20 1 -4
BITMAP
00006FFE4000
0007E55BE000
002D0000BC00
01E000002E00
03C000000F00
0B406F9E0B40
1E01F5FE0B40
3D07D0BC0B40
7C0F80F80F00
B81F41F01E00
B82F03E03D00
B42E0BD0B400
B82F2AD6E000
B80BE1FE4000
7C0100100000
3E0000000000
1F4000000000
07E505800000
00BFFE400000
000140000000
ENDCHAR
STARTCHAR A
ENCODING 65
SWIDTH 615 0
DWIDTH 15 0
BBX 18 18 -2 0
BITMAP
0000001BD0
000000BFD0
000002D7C0
00000F0B80
00002C1F40
0000B42F00
0001E03D00
0003C0BC00
000BEFFF80
00BFFFFF40
00BD02F400
007802F000
00F003E000
02E003D000
07C007D000
0F8007D500
7E0003FD00
B80001F800
ENDCHAR
STARTCHAR B
ENCODING 66
SWIDTH 551 0
DWIDTH 13 0
BBX 14 18 1 0
BITMAP
01AFF900
1FF96F40
2E4007C0
04F403D0
02F807D0
03F00BC0
0BD01F80
0F807E00
1F57F800
3FFFD000
3E96E000
7C00F400
B800B800
B400F800
F402F000
B40BD000
7EBF4000
2FE40000
ENDCHAR
STARTCHAR C
ENCODING 67
SWIDTH 533 0
DWIDTH 13 0
BBX 14 18 1 0
BITMAP
0001BE40
000BE6C0
007E01D0
01F802E0
03F007D0
0BD01FC0
1F807F40
2F407E00
3E001400
7D000000
BD000000
BC000000
BC000000
BC000000
BC001000
7D01B000
2F5BE000
06FE4000
ENDCHAR
STARTCHAR D
ENCODING 68
SWIDTH 630 0
DWIDTH 15 0
BBX 15 18 1 0
BITMAP
06BFE400
1FE96F40
0B4007D0
006801F0
00FC00F4
01F800F8
03F000F4
07D001F4
0FC002F0
1F8003F0
2F400BD0
3E000F80
7D003F40
BC00BD00
BC02F400
F81FD000
B9BE0000
2FA00000
ENDCHAR
STARTCHAR E
ENCODING 69
SWIDTH 509 0
DWIDTH 12 0
BBX 13 18 1 0
BITMAP
0006FE00
007F9780
01FD03C0
03F007C0
0BD01F80
0F80BF00
1F40FD00
0F401000
0B800000
07FF0000
07F90000
2FD00000
7F000000
BD000000
F800D000
F807D000
7E6F4000
1BF90000
ENDCHAR
STARTCHAR F
ENCODING 70
SWIDTH 518 0
DWIDTH 12 0
BBX 14 18 1 0
BITMAP
1BFA5060
7FFFFFE0
BE5BEF80
B80F4000
201F0000
003E0000
007D0000
00BC0000
00FFF400
0BFFF800
0BF50000
03E00000
07D00000
0FC00000
1F400000
3E000000
BC000000
E0000000
ENDCHAR
STARTCHAR G
ENCODING 71
SWIDTH 598 0
DWIDTH 14 0
BBX 14 18 1 0
BITMAP
0001BE40
000BE6C0
007E01E0
01FC02E0
03F007D0
0BD01FC0
0FC07F40
2F403D00
3F000000
7E000000
BD02FFC0
BC07FF80
BC00BE00
BC00B400
BC00F000
7D02D000
2F5B4000
0BF90000
ENDCHAR
STARTCHAR H
ENCODING 72
SWIDTH 668 0
DWIDTH 16 0
BBX 18 18 -1 0
BITMAP
01BF4001D0
02EBC002E0
000BC003E0
000F8007D0
000F8007C0
001F400B80
002F000F40
003E001F00
01BFFFFF80
02FD55BF40
00F800BC00
01F400F400
02E001F000
07D002E000
0B8003D000
1F4007D400
7D0007FD00
B40002E400
ENDCHAR
STARTCHAR I
ENCODING 73
SWIDTH 327 0
DWIDTH 8 0
BBX 9 18 0 0
BITMAP
02FD00
07AF40
001F40
002F40
002F00
003E00
007E00
00BD00
00BC00
00F800
01F400
03E000
07D000
0BC000
1F4000
3E0000
BC0000
E00000
ENDCHAR
STARTCHAR J
ENCODING 74
SWIDTH 393 0
DWIDTH 9 0
BBX 14 24 -4 -6
BITMAP
0001BF90
000BFAF0
002F82F0
001A02F0
000003E0
000007E0
00000BD0
00000FC0
00001F80
00002F40
00003F00
00007E00
0000BC00
0001F800
0002F400
0007E000
000BD000
001F8000
003F0000
00BD0000
01F40000
07D00000
2F400000
F8000000
ENDCHAR
STARTCHAR K
ENCODING 75
SWIDTH 616 0
DWIDTH 15 0
BBX 17 18 -1 0
BITMAP
02FD001E00
03DF401F40
000F401F80
001F401F40
002F403F00
002F00BD00
003E02F400
007E0BD000
00BD2E0000
00FDF40000
01FFD00000
02F7E00000
03E1F80000
0BD0BD0000
0F803F0000
2F401F8000
BD000BE500
F40002F900
ENDCHAR
STARTCHAR L
ENCODING 76
SWIDTH 517 0
DWIDTH 12 0
BBX 15 18 -1 0
BITMAP
00002F90
0000B9B0
0002E074
0007D0B4
000F80F4
002F42F0
003E0BE0
007D3F80
00BC2E00
00F80000
01F40000
03E00000
07D00000
0B800000
0F400000
2E6AF900
7FFFFF00
3E955B00
ENDCHAR
STARTCHAR M
ENCODING 77
SWIDTH 931 0
DWIDTH 22 0
BBX 26 18 -3 0
BITMAP
0000001F4007D0
000000BF802FD0
000003DF40BBC0
00000B2E02DB80
00002D3D078F40
0000787C0F5F00
0000B4B81E3E00
0001E0F83C7D00
0003C1F4B4BC00
000B82F0F0F800
000F02E2D0F400
002E03E3C1F000
007C03DB42F000
00F403DF02E000
02E003FD03E000
07D003F803E100
1F4003F002FF40
7D0002D000BD00
ENDCHAR
STARTCHAR N
ENCODING 78
SWIDTH 708 0
DWIDTH 17 0
BBX 19 18 0 0
BITMAP
0001F402E0
0007F403F4
001FF001F8
003EF001F8
00BAF001F4
00F2F002F0
02E2F003E0
03C2F007C0
0782F00B80
0B41F40F00
0F01F42D00
1E00F83C00
2D00FC7400
3D00BDF000
7C007FD000
78002FC000
B8001F8000
7400074000
ENDCHAR
STARTCHAR O
ENCODING 79
SWIDTH 655 0
DWIDTH 16 0
BBX 15 18 1 0
BITMAP
0001BF80
000BE6F0
002F40B8
00BD007C
02F4007C
07E0007C
0FC000BC
1F8000F8
2F0001F8
3E0002F4
7D0003F0
7D000BD0
BC000F80
BC002F00
7C00BD00
3D02F400
1F5FD000
06F90000
ENDCHAR
STARTCHAR P
ENCODING 80
SWIDTH 553 0
DWIDTH 13 0
BBX 16 18 -1 0
BITMAP
001AFF90
00BF95F8
01F8003D
0057802E
000F802F
001F403E
002F00BD
003E02F8
007D1FE0
00BEFF40
00FFE400
02F00000
03E00000
07D00000
0F800000
1F000000
7D000000
B4000000
ENDCHAR
STARTCHAR Q
ENCODING 81
SWIDTH 655 0
DWIDTH 16 0
BBX 15 22 2 -4
BITMAP
0006FE00
006F9B80
01F802D0
07E002E0
0F8002F0
2F4002F0
3E0003E0
7D0007E0
BC000BD0
F8000F80
F8002F40
F8007E00
FC00FC00
BD02F000
3D0BC000
007E0000
07F80000
2FFF8000
001BF400
0001FE44
00001FFC
00000050
ENDCHAR
STARTCHAR R
ENCODING 82
SWIDTH 623 0
DWIDTH 15 0
BBX 16 19 -1 -1
BITMAP
001AFF90
00BF95B8
01F8002D
0053802F
000BC02F
001F803F
002F407E
003F01FC
007E0BE0
00BEBF80
00FFF800
01F5F400
02F0BC00
07D07D00
0BC02F00
1F401F80
7E000BE4
740002F8
00000010
ENDCHAR
STARTCHAR S
ENCODING 83
SWIDTH 474 0
DWIDTH 11 0
BBX 13 18 0 0
BITMAP
0006F900
002E5B40
00B80380
01F003C0
03E007C0
07D00FC0
07E02F40
07E07E00
03F41400
02F80000
00FE0000
007F0000
001F8000
2C0F8000
7C0B8000
7C0B4000
3E6D0000
1BE40000
ENDCHAR
STARTCHAR T
ENCODING 84
SWIDTH 471 0
DWIDTH 11 0
BBX 14 18 1 0
BITMAP
0BFA5060
2FFFFFF0
7E57FF90
780BC000
240F8000
001F4000
002F0000
003F0000
007E0000
00BD0000
00BC0000
00F80000
01F00000
03E00000
07D00000
0F800000
2E000000
78000000
ENDCHAR
STARTCHAR U
ENCODING 85
SWIDTH 624 0
DWIDTH 15 0
BBX 17 18 0 0
BITMAP
007E000B40
007F001F40
002F002F00
003E007E00
007D00BD00
00F801F800
01F402F400
02F007F000
07D00FE000
0BC01FD000
0F803FC000
1F00BB8000
3E01DF4000
7D038F4000
7C0B1F0000
BD6C1F5400
7FF01FF400
2F800BD000
ENDCHAR
STARTCHAR V
ENCODING 86
SWIDTH 587 0
DWIDTH 14 0
BBX 16 19 2 0
BITMAP
000000B4
1BE000FC
BFF800BD
797C007D
00BC00BC
01F401F8
03F002F0
07D007D0
0FC01F80
1F403F00
2F00BC00
3E02F000
7C0BC000
B82E0000
F4B80000
F5E00000
FB800000
BF000000
3D000000
ENDCHAR
STARTCHAR W
ENCODING 87
SWIDTH 941 0
DWIDTH 23 0
BBX 23 18 1 0
BITMAP
06F4000001F4
3FFD000002F8
2E6E000001FC
003E000400FC
00BD007E00FC
01F802FC00F8
02F40BF400F8
07E02FE001F4
0BD07FC002F0
0F81FF8003E0
1F43DF4007C0
2F0B5F400B80
3E1E2F001F00
7D382E003D00
7CB02E00B400
7DD02E02D000
3F801F9F4000
1E0007E40000
ENDCHAR
STARTCHAR X
ENCODING 88
SWIDTH 552 0
DWIDTH 13 0
BBX 18 18 -1 0
BITMAP
0002C002E0
000BC01FD0
000FC07E00
000F81F800
000F83E000
000F8B8000
000BDF0000
000BFC0000
0007F40000
0007E00000
000BE00000
001FF00000
007EF40000
00F5F80000
03D0FC0000
1F807E1000
7E002FF400
F4000BD000
ENDCHAR
STARTCHAR Y
ENCODING 89
SWIDTH 580 0
DWIDTH 14 0
BBX 17 24 0 -6
BITMAP
007E000B40
007F001F40
003E002F00
003E007D00
00BC00BC00
00F801F800
01F403F400
03E007F000
07D00FE000
0BC02FD000
0F403F8000
2F00BF4000
3E01EF0000
7D03AE0000
7C0E3D0000
BD7CB80000
7FF0F40000
2F82E00000
0007C00000
000F400000
003E000000
00F8000000
07E0000000
2E40000000
ENDCHAR
STARTCHAR Z
ENCODING 90
SWIDTH 501 0
DWIDTH 12 0
BBX 16 18 -1 0
BITMAP
00E556F4
00BFFFBD
006FA4FC
000003F8
00000BE0
00002F80
0000BE00
0002F800
000BE000
001F8000
007E0000
01F80000
03F00000
0BC00000
1F400000
3D6BFD00
7FFFFF00
2E900740
ENDCHAR
STARTCHAR bracketleft
ENCODING 91
SWIDTH 396 0
DWIDTH 10 0
BBX 13 26 0 -5
BITMAP
00006A40
0000FD00
0001F000
0002E000
0003D000
0007C000
000F8000
001F4000
002F0000
003E0000
007D0000
00BC0000
00F80000
01F40000
02E00000
03D00000
07C00000
0B800000
0F400000
1F000000
2E000000
3D000000
7C000000
BC000000
FF800000
15000000
ENDCHAR
STARTCHAR backslash
ENCODING 92
SWIDTH 464 0
DWIDTH 11 0
BBX 8 25 1 -4
BITMAP
A000
B400
7800
3C00
3C00
2D00
1E00
0F00
0F00
0B40
0780
03C0
02C0
02D0
01E0
00F0
00B4
00B4
0078
003C
002D
002D
001E
000F
0007
ENDCHAR
STARTCHAR bracketright
ENCODING 93
SWIDTH 394 0
DWIDTH 9 0
BBX 13 26 -2 -5
BITMAP
0000BFC0
00001BC0
00000B80
00000F40
00001F00
00002E00
00003D00
00007C00
0000B800
0000F400
0001F000
0002E000
0003D000
0007C000
000B8000
001F4000
002F0000
003D0000
007C0000
00B80000
00F40000
01F00000
02E00000
07D00000
6FC00000
15000000
ENDCHAR
STARTCHAR asciicircum
ENCODING 94
SWIDTH 540 0
DWIDTH 13 0
BBX 11 10 2 8
BITMAP
003800
00BC00
01FD00
02FF00
07DF40
0B47C0
1E02D0
3D01E0
7800B4
A00034
ENDCHAR
STARTCHAR underscore
ENCODING 95
SWIDTH 530 0
DWIDTH 13 0
BBX 16 2 -4 -4
BITMAP
7FFFFFFF
BFFFFFFD
ENDCHAR
STARTCHAR grave
ENCODING 96
SWIDTH 219 0
DWIDTH 5 0
BBX 3 6 1 13
BITMAP
B8
F8
F8
B8
2C
04
ENDCHAR
STARTCHAR a
ENCODING 97
SWIDTH 541 0
DWIDTH 13 0
BBX 13 13 0 -1
BITMAP
001BD780
00BDBF80
02F03F40
07D03E00
0F807D00
2F00BC00
3E01F800
3E02F400
7D07F000
3D0EF000
2E79FB00
0BD0FE00
00001400
ENDCHAR
STARTCHAR b
ENCODING 98
SWIDTH 525 0
DWIDTH 13 0
BBX 11 20 1 0
BITMAP
005000
00F400
01F400
01F000
02E000
03D000
07C000
0B8000
0F5BD0
1F7AF4
2FD0F8
3F40F8
7E00F8
BD01F8
B802F4
F403E0
F00BD0
F02F40
7AFD00
1FE000
ENDCHAR
STARTCHAR c
ENCODING 99
SWIDTH 465 0
DWIDTH 11 0
BBX 11 12 0 0
BITMAP
001BE0
00BDB8
03F07C
0BD0BC
1F81F8
2F01E0
3E0000
3E0000
7D0000
3E01C0
2F9B80
07F900
ENDCHAR
STARTCHAR d
ENCODING 100
SWIDTH 557 0
DWIDTH 13 0
BBX 15 20 1 0
BITMAP
00000050
000000F4
000001F0
000003E0
000007D0
00000BC0
00000F80
00001F40
002FAF00
01F9FE00
07D0BD00
1F40BC00
3E00F800
7D01F400
BC03F000
F807E000
F80FE000
F82AE100
BDA2FE00
2F80B800
ENDCHAR
STARTCHAR e
ENCODING 101
SWIDTH 471 0
DWIDTH 11 0
BBX 10 12 1 0
BITMAP
006F80
02F6E0
0BC1F0
1F42F0
3E07E0
BD1FC0
BDBE00
FE9000
F80000
B80240
7E6F40
1BF900
ENDCHAR
STARTCHAR f
ENCODING 102
SWIDTH 393 0
DWIDTH 9 0
BBX 14 23 -1 -3
BITMAP
00006F80
0001F6E0
0002E1F0
0007C2E0
000B87D0
000F4280
001F4000
002F0000
003E0000
007FF800
07FFFC00
06F80000
00F40000
01F40000
02F00000
03E00000
07D00000
0BC00000
0F800000
1F400000
2F000000
7D000000
78000000
ENDCHAR
STARTCHAR g
ENCODING 103
SWIDTH 526 0
DWIDTH 13 0
BBX 12 19 1 -7
BITMAP
006F44
02F6EE
0BC0BD
1F40BC
3E00F8
BD01F4
FC03F0
F807E0
F80FD0
F82FC0
BDBB80
2F8F40
001F00
002E00
007C00
00F400
07E000
6F8000
290000
ENDCHAR
STARTCHAR h
ENCODING 104
SWIDTH 555 0
DWIDTH 13 0
BBX 13 20 0 0
BITMAP
00050000
001F0000
002F0000
002F0000
003E0000
007D0000
007C0000
00B80000
00F47E00
01F1FF40
02E79F40
03DE1F00
07E83E00
0BE07D00
0FC0F800
2F41F400
3E02F000
7D02F100
F802FF00
B400B800
ENDCHAR
STARTCHAR i
ENCODING 105
SWIDTH 286 0
DWIDTH 7 0
BBX 8 18 0 0
BITMAP
007D
00BE
00BD
0014
0000
0000
07E0
03F0
02E0
03D0
07C0
0F40
1F00
2E00
3D00
7D40
7FC0
2F40
ENDCHAR
STARTCHAR j
ENCODING 106
SWIDTH 281 0
DWIDTH 7 0
BBX 11 24 -4 -6
BITMAP
0000B8
0001FC
0001F8
000050
000000
000000
0007E0
0007E0
0003E0
0003E0
0007D0
000BC0
000B80
000F40
001F00
002E00
003D00
00BC00
00F400
02E000
07C000
0F4000
7D0000
E40000
ENDCHAR
STARTCHAR k
ENCODING 107
SWIDTH 497 0
DWIDTH 12 0
BBX 12 20 0 0
BITMAP
000400
001F00
002F00
002E00
003E00
007D00
007C00
00B800
00F43E
01F02F
02E03F
03D0BD
07C7F4
0BBE40
0FF800
2FBC00
3E3E00
7C2F84
F80FFC
B402E4
ENDCHAR
STARTCHAR l
ENCODING 108
SWIDTH 279 0
DWIDTH 7 0
BBX 8 20 0 0
BITMAP
0014
002E
003E
003D
007D
00BC
00F8
01F4
02F0
03E0
07D0
0BC0
0F80
1F40
2F00
2E00
3D00
7D40
3FD0
1F40
ENDCHAR
STARTCHAR m
ENCODING 109
SWIDTH 814 0
DWIDTH 20 0
BBX 19 12 0 0
BITMAP
07E06E02E0
03F1FF0FF8
02E79F39F8
03DE0EA1F4
07E81FC2F0
0BF03F47D0
0FD07E0BC0
2F40FC0F80
3E01F41F00
7D02E01F10
F803D01FF0
B402800B90
ENDCHAR
STARTCHAR n
ENCODING 110
SWIDTH 561 0
DWIDTH 13 0
BBX 13 12 0 0
BITMAP
07D06E00
03F1FF40
02E79F40
03EE1F40
07E82F00
0BF07D00
0FD0BC00
2F40F400
3E01F000
7D02F100
F801FF00
B400B900
ENDCHAR
STARTCHAR o
ENCODING 111
SWIDTH 514 0
DWIDTH 12 0
BBX 11 12 1 0
BITMAP
006F80
02F6E0
0BC1F4
2F40F4
7E01F4
BD02F4
FC03F0
F807E0
F40FC0
F42F40
7DBD00
1FE000
ENDCHAR
STARTCHAR p
ENCODING 112
SWIDTH 550 0
DWIDTH 13 0
BBX 15 18 -2 -6
BITMAP
00B81F80
00BDB6E0
007FC1F4
007F41F4
00BD01F4
00FC02F0
01F403E0
02F00BD0
02F01F80
03F07E00
07FAF800
0B9F9000
0F400000
1F000000
2E000000
3D000000
BC000000
74000000
ENDCHAR
STARTCHAR q
ENCODING 113
SWIDTH 533 0
DWIDTH 13 0
BBX 12 18 1 -6
BITMAP
006F80
01F9EF
0BD0BE
1F40BD
3E00FC
7D01F4
BC03F0
F807E0
F80FC0
F82F80
BDBB40
2F8F00
001E00
002D00
003D00
007C00
003C00
002D00
ENDCHAR
STARTCHAR r
ENCODING 114
SWIDTH 407 0
DWIDTH 10 0
BBX 11 12 0 0
BITMAP
07D0B8
07E3F8
03DAB4
03E800
07F000
0BD000
0F8000
1F4000
2F0000
7D0000
BC0000
780000
ENDCHAR
STARTCHAR s
ENCODING 115
SWIDTH 423 0
DWIDTH 10 0
BBX 10 12 0 0
BITMAP
00BF80
02E6F0
07C1F0
0BC1E0
0BD000
03F400
02F800
00BD00
247E00
B83D00
BEB800
2F9000
ENDCHAR
STARTCHAR t
ENCODING 116
SWIDTH 358 0
DWIDTH 9 0
BBX 8 15 2 0
BITMAP
01E0
02E0
07D0
BFFE
2F54
2F00
3E00
7D00
BC00
B800
F400
F400
F4B0
FFD0
7E40
ENDCHAR
STARTCHAR u
ENCODING 117
SWIDTH 553 0
DWIDTH 13 0
BBX 13 12 0 0
BITMAP
02E00780
03F00BC0
02F01F40
03E03F00
07D0BD00
0F81FC00
1F42F800
2F0BB400
3D1DF000
7DB5F500
7FD1FF00
2E40B900
ENDCHAR
STARTCHAR v
ENCODING 118
SWIDTH 510 0
DWIDTH 12 0
BBX 12 12 0 0
BITMAP
02E07D
03F03E
02F02F
03E02F
07D02E
0F803D
1F4078
2F00F4
3D02D0
7D0B40
3FBD00
1F9000
ENDCHAR
STARTCHAR w
ENCODING 119
SWIDTH 750 0
DWIDTH 18 0
BBX 17 12 1 0
BITMAP
1F80001F00
1FC07C1F80
0B80BC0F80
0F81F40B80
1F03F00F40
2E0BD00F00
3D1FC01E00
7C3BC03C00
B8A780B400
FB87C2E000
FE03FF4000
B801F90000
ENDCHAR
STARTCHAR x
ENCODING 120
SWIDTH 467 0
DWIDTH 11 0
BBX 13 12 -1 0
BITMAP
00740BC0
00F42F40
01F4F800
01F6E000
00FF8000
00FE0000
00BD0000
00FD0000
02FF0000
0B5F8400
2E0BF800
7802E000
ENDCHAR
STARTCHAR y
ENCODING 121
SWIDTH 549 0
DWIDTH 13 0
BBX 13 19 0 -7
BITMAP
02E00380
02F40BC0
02F01F80
03E02F40
07D07F00
0BC0FE00
1F42FD00
2F07BC00
3E1DF400
7D79F000
7FE2E000
2F43D000
00078000
000F4000
002E0000
00BC0000
02F00000
1F800000
05000000
ENDCHAR
STARTCHAR z
ENCODING 122
SWIDTH 430 0
DWIDTH 10 0
BBX 11 12 0 0
BITMAP
039578
03FFFC
0055F8
0007E0
002F80
00BE00
02F400
0BD000
2F0000
7D6900
BFFF80
795680
ENDCHAR
STARTCHAR braceleft
ENCODING 123
SWIDTH 424 0
DWIDTH 10 0
BBX 12 26 1 -5
BITMAP
0000BF
0001F9
0003E0
0007D0
000BC0
000F80
000F40
001F00
003E00
007D00
02F800
1FE000
1F4000
0B8000
07C000
0B8000
0F8000
1F4000
2F0000
3E0000
7D0000
BC0000
B80000
BC0000
7F4000
040000
ENDCHAR
STARTCHAR bar
ENCODING 124
SWIDTH 306 0
DWIDTH 7 0
BBX 3 25 3 -4
BITMAP
70
F0
F4
F4
F4
F4
F4
F4
F4
F4
F0
F0
F0
F0
F0
F0
F0
F0
F0
F0
F0
F0
F0
F0
E0
ENDCHAR
STARTCHAR braceright
ENCODING 125
SWIDTH 424 0
DWIDTH 10 0
BBX 13 26 -2 -5
BITMAP
00007E00
00001F40
00000F40
00001F40
00002F00
00003E00
00007D00
0000BC00
0000F800
0000F400
0001F400
0000F400
00007800
0002FD00
000BE400
002F4000
003E0000
007D0000
00BC0000
00F80000
01F40000
01F00000
03E00000
0BD00000
7F400000
14000000
ENDCHAR
STARTCHAR asciitilde
ENCODING 126
SWIDTH 624 0
DWIDTH 15 0
BBX 14 5 1 6
BITMAP
02F80090
0FFF01D0
2D7FD780
740FFF00
6002F800
ENDCHAR
STARTCHAR nonbreakingspace
ENCODING 160
SWIDTH 293 0
DWIDTH 7 0
BBX 1 1 0 0
BITMAP
00
ENDCHAR
STARTCHAR exclamdown
ENCODING 161
SWIDTH 417 0
DWIDTH 10 0
BBX 9 20 0 -6
BITMAP
000B40
001FC0
002FC0
001B80
000000
001400
007400
00F000
02E000
03D000
0BC000
0F8000
1F4000
2F0000
3F0000
3E0000
7E0000
7D0000
2D0000
040000
ENDCHAR
STARTCHAR cent
ENCODING 162
SWIDTH 487 0
DWIDTH 12 0
BBX 10 18 2 0
BITMAP
0001D0
0003C0
000B40
001F40
02FBC0
0BC2D0
2F43D0
7E0BC0
BC0B40
F80000
F80000
F40000
F80700
BD1E00
2FF800
0E4000
1D0000
280000
ENDCHAR
STARTCHAR sterling
ENCODING 163
SWIDTH 665 0
DWIDTH 16 0
BBX 18 18 -1 0
BITMAP
000000BE00
000007E780
00000F82C0
00002F02D0
00007D07C0
0000BC1F80
0001F87F40
0002F4BD00
0003F01400
006FFF4000
00AFD54000
000F800000
001F400000
1BFE000000
39BF400400
70BFE56D00
7AF5FFFC00
2F901BE400
ENDCHAR
STARTCHAR currency
ENCODING 164
SWIDTH 572 0
DWIDTH 14 0
BBX 14 15 1 1
BITMAP
00600040
00B003D0
00F40F80
00BFFE00
00BDBC00
02F07C00
0BD07D00
0F807D00
1F40BC00
1F01F800
1F03E000
0F5BC000
2FFFC000
7411D000
6000A000
ENDCHAR
STARTCHAR yen
ENCODING 165
SWIDTH 583 0
DWIDTH 14 0
BBX 16 18 1 0
BITMAP
2E00002E
7FC000FE
0BD003F8
03E00BE0
01F01F80
00F43E00
0078BC00
0039F400
003EE000
002FC000
06BFE400
0BFFE000
003E0000
1ABEA000
2FFF9000
00F40000
00F00000
00E00000
ENDCHAR
STARTCHAR brokenbar
ENCODING 166
SWIDTH 292 0
DWIDTH 7 0
BBX 3 25 2 -4
BITMAP
28
78
78
78
78
78
78
78
78
78
74
00
00
00
28
78
78
78
78
78
78
78
78
78
74
ENDCHAR
STARTCHAR section
ENCODING 167
SWIDTH 583 0
DWIDTH 14 0
BBX 15 25 0 -6
BITMAP
0000BF80
0007E5E0
000F80B4
001F40B4
001F41F4
001F4BF0
001F8BD0
000FD000
006FE000
01F7F400
07D1F800
0BC0BD00
0BC07E00
0BD03E00
07E02E00
03F43D00
02FDB800
00FF9000
007E0000
242F0000
B81F0000
B81E0000
BD6D0000
2FF40000
01000000
ENDCHAR
STARTCHAR dieresis
ENCODING 168
SWIDTH 412 0
DWIDTH 10 0
BBX 9 4 1 14
BITMAP
7D1F80
FD2FC0
BD1F80
140500
ENDCHAR
STARTCHAR copyright
ENCODING 169
SWIDTH 871 0
DWIDTH 21 0
BBX 18 18 2 0
BITMAP
0006BF9000
006F95BD00
01F4001F40
07D0BF47C0
1F03E6C2D0
2D0F81D1E0
782F03D0F0
B43E0BC0F0
F07D1F40F0
F0BC0501E0
F0B80002E0
F0BC0103C0
F03D1E0780
B81FF81F00
3C01407D00
1F4001F400
07E56F8000
006FE90000
ENDCHAR
STARTCHAR ordfeminine
ENCODING 170
SWIDTH 564 0
DWIDTH 14 0
BBX 12 11 2 6
BITMAP
006F6D
02F6FC
07C0F8
1F41F4
2E02E0
3D07D0
7C0BC0
7C1F80
3D7BC4
1FD3F4
010040
ENDCHAR
STARTCHAR guillemotleft
ENCODING 171
SWIDTH 662 0
DWIDTH 16 0
BBX 14 10 1 2
BITMAP
00060060
007D07D0
02F42F40
1F81F800
7E07E000
3E03E000
0F80F800
07E07E00
01F41F40
00500500
ENDCHAR
STARTCHAR logicalnot
ENCODING 172
SWIDTH 729 0
DWIDTH 18 0
BBX 14 8 2 1
BITMAP
FFFFFFD0
555556D0
000002D0
000002D0
000003D0
000003D0
000003C0
00000100
ENDCHAR
STARTCHAR uni00AD
ENCODING 173
SWIDTH 833 0
DWIDTH 20 0
BBX 1 1 0 0
BITMAP
00
ENDCHAR
STARTCHAR registered
ENCODING 174
SWIDTH 742 0
DWIDTH 18 0
BBX 15 15 2 3
BITMAP
001BF900
00BA5BD0
03D140F0
0F2FF878
2D392D2C
380D2D2C
741D7C1C
B02FE02C
B03A803C
B0B5D078
B4E0F4F0
784016D0
2E001F40
0BEAFD00
01BF9000
ENDCHAR
STARTCHAR macron
ENCODING 175
SWIDTH 392 0
DWIDTH 9 0
BBX 9 2 1 14
BITMAP
2FFFC0
7FFF40
ENDCHAR
STARTCHAR degree
ENCODING 176
SWIDTH 405 0
DWIDTH 10 0
BBX 9 8 2 10
BITMAP
02FD00
0F9F00
2E0F40
7C0F40
7C1F00
7C7D00
2FF400
014000
ENDCHAR
STARTCHAR plusminus
ENCODING 177
SWIDTH 617 0
DWIDTH 15 0
BBX 13 16 1 0
BITMAP
000D0000
001D0000
001D0000
001D0000
001D0000
001D0000
7FFFFF40
156E5500
001D0000
001D0000
001D0000
001C0000
00000000
00000000
15555500
7FFFFF40
ENDCHAR
STARTCHAR twosuperior
ENCODING 178
SWIDTH 458 0
DWIDTH 11 0
BBX 10 13 2 5
BITMAP
01BE40
07DBC0
0F43D0
0F43D0
0F8BD0
065F80
007F00
02F800
0BE000
3F4000
BC0500
FBFD00
001000
ENDCHAR
STARTCHAR threesuperior
ENCODING 179
SWIDTH 430 0
DWIDTH 10 0
BBX 10 12 2 6
BITMAP
01BE40
03DBC0
0B43D0
0B47D0
064F80
00BE00
03F800
017D00
643D00
F07D00
F1F800
7FD000
ENDCHAR
STARTCHAR acute
ENCODING 180
SWIDTH 322 0
DWIDTH 8 0
BBX 6 6 2 13
BITMAP
0180
03D0
07D0
0F80
2E00
A400
ENDCHAR
STARTCHAR mu
ENCODING 181
SWIDTH 618 0
DWIDTH 15 0
BBX 15 18 -1 -6
BITMAP
000A0038
002F00BC
007D01F4
00FC03F0
01F407E0
02F00FC0
07E02F80
0BD07F40
0FC1EF00
1FD79F50
2FFE0FF0
3EF407D0
3C000000
7C000000
B8000000
B8000000
B4000000
74000000
ENDCHAR
STARTCHAR paragraph
ENCODING 182
SWIDTH 739 0
DWIDTH 18 0
BBX 21 21 0 -2
BITMAP
000006BFFF40
0000BFF5F800
0007FFD1F400
001FFF82F000
003FFF42E000
007FFF03D000
007FFF07C000
007FFE0BC000
002FFD0B8000
000BFD0F4000
0000FC1F0000
0001F82E0000
0001F43D0000
0002F07C0000
0003E0B40000
1B87C0F00000
3F4B81E00000
7D1F02D00000
7D7D07800000
2FF40B000000
014004000000
ENDCHAR
STARTCHAR periodcentered
ENCODING 183
SWIDTH 353 0
DWIDTH 8 0
BBX 4 4 3 6
BITMAP
BD
FE
FD
24
ENDCHAR
STARTCHAR cedilla
ENCODING 184
SWIDTH 301 0
DWIDTH 7 0
BBX 4 6 2 -5
BITMAP
28
1D
1E
2E
FD
B4
ENDCHAR
STARTCHAR onesuperior
ENCODING 185
SWIDTH 403 0
DWIDTH 10 0
BBX 7 13 3 5
BITMAP
00B4
03F8
1FF4
BEF0
52E0
03D0
07C0
0B80
1F00
2E00
7C00
B400
5000
ENDCHAR
STARTCHAR ordmasculine
ENCODING 186
SWIDTH 498 0
DWIDTH 12 0
BBX 10 11 2 6
BITMAP
00BF80
02E6E0
0B81F0
1F41F0
3E02F0
7D03E0
7C07D0
7C1F80
3D7E00
1FF400
014000
ENDCHAR
STARTCHAR guillemotright
ENCODING 187
SWIDTH 665 0
DWIDTH 16 0
BBX 14 10 1 2
BITMAP
1E01E000
0F80F800
03E03E00
01F81F80
007D07D0
00FD1FD0
07E07E00
2F42E400
74074000
40040000
ENDCHAR
STARTCHAR onequarter
ENCODING 188
SWIDTH 988 0
DWIDTH 24 0
BBX 20 20 2 0
BITMAP
0000000400
0000003C00
007800B800
02FC01F000
1FFC02D000
79F807C000
01F40F4000
02F02E1E00
03E03D1F00
07C0B82F00
0B81F03E28
1F02D07C2E
2D07C0F83D
780F41F47C
101E02E0B8
003C02FFFE
00B8006AE0
01F00003C0
02D0000B40
0380000D00
ENDCHAR
STARTCHAR onehalf
ENCODING 189
SWIDTH 988 0
DWIDTH 24 0
BBX 21 19 2 0
BITMAP
0000001D0000
0078007C0000
01FC00F40000
0BFC02E00000
7FF807C00000
64F40B800000
01F01F000000
02E03D06F800
07C0782F6F00
0B80F43C0F40
1F02E07D1F40
2D07C02D2F00
780B4000BD00
101E0002F400
003D000FD000
00B8007E0000
00F001F41400
02D003FFF400
038003FFE000
ENDCHAR
STARTCHAR threequarters
ENCODING 190
SWIDTH 1007 0
DWIDTH 24 0
BBX 22 20 1 0
BITMAP
000000005000
00000002D000
00BE40078000
03DBC00F4000
0B43D02E0000
0B83D07C0000
064BC0B40000
007F01F09000
02F803D0F000
017D0781F000
643E0F42E140
F47D2E07C3D0
F5F87C0B83C0
7FD0B41F0780
0001F02E1F80
0003D01FFFC0
000780016D00
000F40003800
002E0000B000
00380001D000
ENDCHAR
STARTCHAR questiondown
ENCODING 191
SWIDTH 516 0
DWIDTH 12 0
BBX 11 19 0 -5
BITMAP
0000B4
0001FC
0002FC
0001B8
000000
000180
0002C0
000BC0
002F40
01FE00
07F400
2FD000
7E0500
BC1F40
F41F40
F01F00
787E00
2FF400
014000
ENDCHAR
STARTCHAR Agrave
ENCODING 192
SWIDTH 615 0
DWIDTH 15 0
BBX 18 24 -2 0
BITMAP
0000001400
0000007C00
0000007D00
0000002F00
0000000780
0000000000
0000001BD0
000000BFD0
000002D7C0
00000F0B80
00002C1F40
0000B42F00
0001E03D00
0003C0BC00
000BEFFF80
00BFFFFF40
00BD02F400
007802F000
00F003E000
02E003D000
07C007D000
0F8007D500
7E0003FD00
B80001F800
ENDCHAR
STARTCHAR Aacute
ENCODING 193
SWIDTH 615 0
DWIDTH 15 0
BBX 19 24 -2 0
BITMAP
0000000010
0000000078
00000000F8
00000002F4
0000000780
0000000000
0000001BD0
000000BFD0
000002D7C0
00000F0B80
00002C1F40
0000B42F00
0001E03D00
0003C0BC00
000BEFFF80
00BFFFFF40
00BD02F400
007802F000
00F003E000
02E003D000
07C007D000
0F8007D500
7E0003FD00
B80001F800
ENDCHAR
STARTCHAR Acircumflex
ENCODING 194
SWIDTH 615 0
DWIDTH 15 0
BBX 19 23 -2 0
BITMAP
00000002D0
0000000BF0
0000007DF8
000001E07C
0000000000
0000001BD0
000000BFD0
000002D7C0
00000F0B80
00002C1F40
0000B42F00
0001E03D00
0003C0BC00
000BEFFF80
00BFFFFF40
00BD02F400
007802F000
00F003E000
02E003D000
07C007D000
0F8007D500
7E0003FD00
B80001F800
ENDCHAR
STARTCHAR Atilde
ENCODING 195
SWIDTH 615 0
DWIDTH 15 0
BBX 20 23 -2 0
BITMAP
0000007E03
000001FF8B
0000028BFD
00000202E4
0000000000
0000001BD0
000000BFD0
000002D7C0
00000F0B80
00002C1F40
0000B42F00
0001E03D00
0003C0BC00
000BEFFF80
00BFFFFF40
00BD02F400
007802F000
00F003E000
02E003D000
07C007D000
0F8007D500
7E0003FD00
B80001F800
ENDCHAR
STARTCHAR Adieresis
ENCODING 196
SWIDTH 615 0
DWIDTH 15 0
BBX 20 23 -2 0
BITMAP
000001F42E
000003F87F
000002F47E
0000005014
0000000000
0000001BD0
000000BFD0
000002D7C0
00000F0B80
00002C1F40
0000B42F00
0001E03D00
0003C0BC00
000BEFFF80
00BFFFFF40
00BD02F400
007802F000
00F003E000
02E003D000
07C007D000
0F8007D500
7E0003FD00
B80001F800
ENDCHAR
STARTCHAR Aring
ENCODING 197
SWIDTH 615 0
DWIDTH 15 0
BBX 19 23 -2 0
BITMAP
0000000BF4
0000002E78
000000783C
0000007878
00000078B4
0000003FF0
000000BFD0
000002EBC0
00000F8B80
00002D0F40
0000B82F00
0001E03D00
0003C0BC00
000BEFFF80
00BFFFFF40
00BD02F400
007802F000
00F003E000
02E003D000
07C007D000
0F8007D500
7E0003FD00
B80001F800
ENDCHAR
STARTCHAR AE
ENCODING 198
SWIDTH 878 0
DWIDTH 21 0
BBX 25 18 -2 0
BITMAP
0000001BEBFE00
000000BFFF9780
000002F6F803C0
00000BC7E007C0
00002F0BC01F80
00007D1F80BF00
0000F41F40FC00
0002E01F401000
0007C01F400000
000FFFFFFE0000
00BFFFFFF90000
00BD002F800000
00B8007E000000
01F000FC004000
03D000F801D000
0B8000F807C000
6F0000BEBF4000
B900001BE80000
ENDCHAR
STARTCHAR Ccedilla
ENCODING 199
SWIDTH 533 0
DWIDTH 13 0
BBX 14 23 1 -5
BITMAP
0001BE40
000BE6C0
007E01D0
00F802E0
03F007E0
0BD00FC0
0F807F80
2F407E00
3F000400
7E000000
7D000000
BC000000
BC000000
BC000000
BD001000
7D00B000
2F5BE000
07FE4000
02C00000
01D00000
03D00000
1FC00000
1F400000
ENDCHAR
STARTCHAR Egrave
ENCODING 200
SWIDTH 509 0
DWIDTH 12 0
BBX 13 24 1 0
BITMAP
00004000
0003D000
0003E000
0002F400
00006C00
00000000
0006FE00
007F9780
01FD03C0
03F007C0
0BD01F80
0F80BF00
1F40FD00
0F401000
0B800000
07FF0000
07F90000
2FD00000
7F000000
BD000000
F800D000
F807D000
7E6F4000
1BF90000
ENDCHAR
STARTCHAR Eacute
ENCODING 201
SWIDTH 509 0
DWIDTH 12 0
BBX 14 24 1 0
BITMAP
00000100
000003C0
00000BD0
00001F40
00003900
00000000
0006FE00
007F9780
01FD03C0
03F007C0
0BD01F80
0F80BF00
1F40FD00
0F401000
0B800000
07FF0000
07F90000
2FD00000
7F000000
BD000000
F800D000
F807D000
7E6F4000
1BF90000
ENDCHAR
STARTCHAR Ecircumflex
ENCODING 202
SWIDTH 509 0
DWIDTH 12 0
BBX 14 23 1 0
BITMAP
00001E00
00007F40
0006EBC0
000E42D0
00000000
0006FE00
007F9780
01FD03C0
03F007C0
0BD01F80
0F80BF00
1F40FD00
0F401000
0B800000
07FF0000
07F90000
2FD00000
7F000000
BD000000
F800D000
F807D000
7E6F4000
1BF90000
ENDCHAR
STARTCHAR Edieresis
ENCODING 203
SWIDTH 509 0
DWIDTH 12 0
BBX 15 23 1 0
BITMAP
000B82F0
002FC3F4
001F83F0
00050040
00000000
0006FE00
007F9780
01FD03C0
03F007C0
0BD01F80
0F80BF00
1F40FD00
0F401000
0B800000
07FF0000
07F90000
2FD00000
7F000000
BD000000
F800D000
F807D000
7E6F4000
1BF90000
ENDCHAR
STARTCHAR Igrave
ENCODING 204
SWIDTH 327 0
DWIDTH 8 0
BBX 9 24 0 0
BITMAP
001400
003C00
007D00
002F40
000780
000000
02FD00
07AF40
001F40
002F40
002F00
003E00
007E00
00BD00
00BC00
00F800
01F400
03E000
07D000
0BC000
1F4000
3E0000
BC0000
E00000
ENDCHAR
STARTCHAR Iacute
ENCODING 205
SWIDTH 327 0
DWIDTH 8 0
BBX 11 24 0 0
BITMAP
000010
00007C
0000BC
0002F4
000780
000000
02FD00
07AF40
001F40
002F40
002F00
003E00
007E00
00BD00
00BC00
00F800
01F400
03E000
07D000
0BC000
1F4000
3E0000
BC0000
E00000
ENDCHAR
STARTCHAR Icircumflex
ENCODING 206
SWIDTH 327 0
DWIDTH 8 0
BBX 11 23 0 0
BITMAP
0001E0
000BF0
007DF8
01E47C
000000
02FD00
07AF40
001F40
002F40
002F00
003E00
007E00
00BD00
00BC00
00F800
01F400
03E000
07D000
0BC000
1F4000
3E0000
BC0000
E00000
ENDCHAR
STARTCHAR Idieresis
ENCODING 207
SWIDTH 327 0
DWIDTH 8 0
BBX 12 23 0 0
BITMAP
01F42E
02F87F
02F43E
005014
000000
02FD00
07AF40
001F40
002F40
002F00
003E00
007E00
00BD00
00BC00
00F800
01F400
03E000
07D000
0BC000
1F4000
3E0000
BC0000
E00000
ENDCHAR
STARTCHAR Eth
ENCODING 208
SWIDTH 630 0
DWIDTH 15 0
BBX 16 18 0 0
BITMAP
01AFF900
0BF95BD0
078001F4
001900BC
003F007D
00BD007D
00F8007D
2FFFE07D
7FFFD0BC
07D000F8
0BC002F4
0F8007E0
1F400FC0
2F003F40
3E00FD00
3E07F400
2E6F8000
0BE40000
ENDCHAR
STARTCHAR Ntilde
ENCODING 209
SWIDTH 708 0
DWIDTH 17 0
BBX 19 23 0 0
BITMAP
000001B808
000003FE2C
00000A6FF4
0000080B90
0000000000
0001F402E0
0007F403F4
001FF001F8
003EF001F8
00BAF001F4
00F2F002F0
02E2F003E0
03C2F007C0
0782F00B80
0B41F40F00
0F01F42D00
1E00F83C00
2D00FC7400
3D00BDF000
7C007FD000
78002FC000
B8001F8000
7400074000
ENDCHAR
STARTCHAR Ograve
ENCODING 210
SWIDTH 655 0
DWIDTH 16 0
BBX 15 24 1 0
BITMAP
00000400
00002E00
00003F00
00001F80
000006D0
00000000
0001BF80
000BE6F0
002F40B8
00BD007C
02F4007C
07E0007C
0FC000BC
1F8000F8
2F0001F8
3E0002F4
7D0003F0
7D000BD0
BC000F80
BC002F00
7C00BD00
3D02F400
1F5FD000
06F90000
ENDCHAR
STARTCHAR Oacute
ENCODING 211
SWIDTH 655 0
DWIDTH 16 0
BBX 16 24 1 0
BITMAP
00000004
0000003D
0000007D
000001F8
00000390
00000000
0001BF80
000BE6F0
002F40B8
00BD007C
02F4007C
07E0007C
0FC000BC
1F8000F8
2F0001F8
3E0002F4
7D0003F0
7D000BD0
BC000F80
BC002F00
7C00BD00
3D02F400
1F5FD000
06F90000
ENDCHAR
STARTCHAR Ocircumflex
ENCODING 212
SWIDTH 655 0
DWIDTH 16 0
BBX 16 23 1 0
BITMAP
000000F0
000007F4
00006EBC
0000F42D
00000000
0001BF80
000BE6F0
002F40B8
00BD007C
02F4007C
07E0007C
0FC000BC
1F8000F8
2F0001F8
3E0002F4
7D0003F0
7D000BD0
BC000F80
BC002F00
7C00BD00
3D02F400
1F5FD000
06F90000
ENDCHAR
STARTCHAR Otilde
ENCODING 213
SWIDTH 655 0
DWIDTH 16 0
BBX 17 23 1 0
BITMAP
00002F4180
0000BFD740
0001D3FE00
000181F800
0000000000
0001BF8000
000BE6F000
002F40B800
00BD007C00
02F4007C00
07E0007C00
0FC000BC00
1F8000F800
2F0001F800
3E0002F400
7D0003F000
7D000BD000
BC000F8000
BC002F0000
7C00BD0000
3D02F40000
1F5FD00000
06F9000000
ENDCHAR
STARTCHAR Odieresis
ENCODING 214
SWIDTH 655 0
DWIDTH 16 0
BBX 17 23 1 0
BITMAP
0000B81F40
0001FC3F80
0000F82F40
0000500500
0000000000
0001BF8000
000BE6F000
002F40B800
00BD007C00
02F4007C00
07E0007C00
0FC000BC00
1F8000F800
2F0001F800
3E0002F400
7D0003F000
7D000BD000
BC000F8000
BC002F0000
7C00BD0000
3D02F40000
1F5FD00000
06F9000000
ENDCHAR
STARTCHAR multiply
ENCODING 215
SWIDTH 573 0
DWIDTH 14 0
BBX 11 9 2 3
BITMAP
740074
2D02E0
0B4B80
02EE00
00F800
02FD00
0B4B40
2D02D0
7400B0
ENDCHAR
STARTCHAR Oslash
ENCODING 216
SWIDTH 655 0
DWIDTH 16 0
BBX 16 22 2 -2
BITMAP
0000006D
000000F8
0001BFE0
000BEBF0
007E0BF4
01FC1DB8
03F438B8
0BD0B4B8
0FC0E0F8
2F42C0F8
3F0741F4
7E0E02F0
7D1C07E0
BC340BC0
B8B01F80
B9D03F00
BB80BC00
7F42F400
2F5F8000
3FF90000
74000000
A0000000
ENDCHAR
STARTCHAR Ugrave
ENCODING 217
SWIDTH 624 0
DWIDTH 15 0
BBX 17 24 0 0
BITMAP
0000040000
00003C0000
00007E0000
00002F4000
000006C000
0000000000
007E000B40
007F001F40
002F002F00
003E007E00
007D00BD00
00F801F800
01F402F400
02F007F000
07D00FE000
0BC01FD000
0F803FC000
1F00BB8000
3E01DF4000
7D038F4000
7C0B1F0000
BD6C1F5400
7FF01FF400
2F800BD000
ENDCHAR
STARTCHAR Uacute
ENCODING 218
SWIDTH 624 0
DWIDTH 15 0
BBX 17 24 0 0
BITMAP
0000001000
0000007C00
000000BC00
000001F400
0000078000
0000000000
007E000B40
007F001F40
002F002F00
003E007E00
007D00BD00
00F801F800
01F402F400
02F007F000
07D00FE000
0BC01FD000
0F803FC000
1F00BB8000
3E01DF4000
7D038F4000
7C0B1F0000
BD6C1F5400
7FF01FF400
2F800BD000
ENDCHAR
STARTCHAR Ucircumflex
ENCODING 219
SWIDTH 624 0
DWIDTH 15 0
BBX 17 23 0 0
BITMAP
000001E000
00000BF000
00007DF800
0001E47C00
0000000000
007E000B40
007F001F40
002F002F00
003E007E00
007D00BD00
00F801F800
01F402F400
02F007F000
07D00FE000
0BC01FD000
0F803FC000
1F00BB8000
3E01DF4000
7D038F4000
7C0B1F0000
BD6C1F5400
7FF01FF400
2F800BD000
ENDCHAR
STARTCHAR Udieresis
ENCODING 220
SWIDTH 624 0
DWIDTH 15 0
BBX 17 23 0 0
BITMAP
0001F42E00
0002F87F40
0001F43F00
0000501400
0000000000
007E000B40
007F001F40
002F002F00
003E007E00
007D00BD00
00F801F800
01F402F400
02F007F000
07D00FE000
0BC01FD000
0F803FC000
1F00BB8000
3E01DF4000
7D038F4000
7C0B1F0000
BD6C1F5400
7FF01FF400
2F800BD000
ENDCHAR
STARTCHAR Yacute
ENCODING 221
SWIDTH 580 0
DWIDTH 14 0
BBX 17 30 0 -6
BITMAP
0000002400
000000BC00
000001F800
000007D000
0000050000
0000000000
007E000B40
007F001F40
003E002F00
003E007D00
00BC00BC00
00F801F800
01F403F400
03E007F000
07D00FE000
0BC02FD000
0F403F8000
2F00BF4000
3E01EF0000
7D03AE0000
7C0E3D0000
BD7CB80000
7FF0F40000
2F82E00000
0007C00000
000F400000
003E000000
00F8000000
07E0000000
2E40000000
ENDCHAR
STARTCHAR Thorn
ENCODING 222
SWIDTH 527 0
DWIDTH 13 0
BBX 14 18 -1 0
BITMAP
02FE0000
03EF4000
001F4000
001F4000
002F4000
003FF900
003E5BC0
007D02E0
00BC02F0
00F803E0
01F40BD0
02F06F80
03FBFD00
0BEA9000
0F800000
2F000000
BC000000
E0000000
ENDCHAR
STARTCHAR germandbls
ENCODING 223
SWIDTH 520 0
DWIDTH 13 0
BBX 14 23 -1 -3
BITMAP
0000BF40
0003E6D0
000B81E0
001F01F0
002E02E0
007D03E0
00BC0BC0
00F82F40
01F47D00
01F0F400
02E1F000
03E1F000
07D1F400
07C0FC00
0BC07E00
0F802F40
1F490F80
2F2E0B40
2E1FAE00
3D0BF400
7C000000
F8000000
E0000000
ENDCHAR
STARTCHAR agrave
ENCODING 224
SWIDTH 541 0
DWIDTH 13 0
BBX 13 20 0 -1
BITMAP
0002D000
0007D000
0003D000
0002D000
0001E000
00007000
00000000
001BD780
00BDBF80
02F03F40
07D03E00
0F807D00
2F00BC00
3E01F800
3E02F400
7D07F000
3D0EF000
2E79FB00
0BD0FE00
00001400
ENDCHAR
STARTCHAR aacute
ENCODING 225
SWIDTH 541 0
DWIDTH 13 0
BBX 13 20 0 -1
BITMAP
00001800
00002E00
00003E00
0000BC00
0002E000
00074000
00000000
001BD780
00BDBF80
02F03F40
07D03E00
0F807D00
2F00BC00
3E01F800
3E02F400
7D07F000
3D0EF000
2E79FB00
0BD0FE00
00001400
ENDCHAR
STARTCHAR acircumflex
ENCODING 226
SWIDTH 541 0
DWIDTH 13 0
BBX 13 20 0 -1
BITMAP
00000400
00002E00
0001FF00
0007DF40
007E0B80
00140140
00000000
001BD780
00BDBF80
02F03F40
07D03E00
0F807D00
2F00BC00
3E01F800
3E02F400
7D07F000
3D0EF000
2E79FB00
0BD0FE00
00001400
ENDCHAR
STARTCHAR atilde
ENCODING 227
SWIDTH 541 0
DWIDTH 13 0
BBX 14 19 0 -1
BITMAP
0007D060
001FF4A0
0039FFC0
00602E00
00000000
00000000
001BD780
00BDBF80
02F03F40
07D03E00
0F807D00
2F00BC00
3E01F800
3E02F400
7D07F000
3D0EF000
2E79FB00
0BD0FE00
00001400
ENDCHAR
STARTCHAR adieresis
ENCODING 228
SWIDTH 541 0
DWIDTH 13 0
BBX 14 19 0 -1
BITMAP
002E07D0
007F4BE0
003F0BD0
00040140
00000000
00000000
001BD780
00BDBF80
02F03F40
07D03E00
0F807D00
2F00BC00
3E01F800
3E02F400
7D07F000
3D0EF000
2E79FB00
0BD0FE00
00001400
ENDCHAR
STARTCHAR aring
ENCODING 229
SWIDTH 541 0
DWIDTH 13 0
BBX 13 20 0 -1
BITMAP
0001BE00
0007DF40
000F4B40
000F5F00
0007FD00
00005000
00000000
001BD780
00BDBF80
02F03F40
07D03E00
0F807D00
2F00BC00
3E01F800
3E02F400
7D07F000
3D0EF000
2E79FB00
0BD0FE00
00001400
ENDCHAR
STARTCHAR ae
ENCODING 230
SWIDTH 769 0
DWIDTH 18 0
BBX 18 12 0 0
BITMAP
001BD7AF80
00BDBFE7E0
02F03F82F0
07C03F02F0
0F807E07E0
2F00BC1FD0
3E01FDBE40
3E02FFE400
7D07F80000
3D0EBC0280
2F787E6F40
0BD01BF900
ENDCHAR
STARTCHAR ccedilla
ENCODING 231
SWIDTH 465 0
DWIDTH 11 0
BBX 11 18 0 -6
BITMAP
001BE0
00BDB8
03E07C
0BD0BC
1F81F8
2F01E0
3E0000
3E0000
7D0000
3E01C0
2F9B80
0BF900
01D000
00E000
01E000
07D000
0FC000
050000
ENDCHAR
STARTCHAR egrave
ENCODING 232
SWIDTH 471 0
DWIDTH 11 0
BBX 10 19 1 0
BITMAP
002D00
003E00
003D00
002E00
001E00
000700
000000
006F80
02F6E0
0BC1F0
1F42F0
3E07E0
BD1FC0
BDBE00
FE9000
F80000
B80240
7E6F40
1BF900
ENDCHAR
STARTCHAR eacute
ENCODING 233
SWIDTH 471 0
DWIDTH 11 0
BBX 10 19 1 0
BITMAP
000180
0002E0
0003E0
000BC0
001F00
007400
000000
006F80
02F6E0
0BC1F0
1F42F0
3E07E0
BD1FC0
BDBE00
FE9000
F80000
B80240
7E6F40
1BF900
ENDCHAR
STARTCHAR ecircumflex
ENCODING 234
SWIDTH 471 0
DWIDTH 11 0
BBX 11 19 1 0
BITMAP
000040
0002E0
000BF0
007DF4
07E0B8
014014
000000
006F80
02F6E0
0BC1F0
1F42F0
3E07E0
BD1FC0
BDBE00
FE9000
F80000
B80240
7E6F40
1BF900
ENDCHAR
STARTCHAR edieresis
ENCODING 235
SWIDTH 471 0
DWIDTH 11 0
BBX 12 18 1 0
BITMAP
02F07D
03F4BE
03F0BD
004014
000000
000000
006F80
02E6E0
0B81F0
1F02E0
3D0BD0
BD7F40
BFE400
F80000
F80140
BC0780
7E6F00
1BE800
ENDCHAR
STARTCHAR igrave
ENCODING 236
SWIDTH 286 0
DWIDTH 7 0
BBX 7 19 0 0
BITMAP
00B0
02F0
02F0
01F0
00B4
0028
0000
07E0
03F0
02E0
03D0
07C0
0F40
1F00
2E00
3D00
7D40
7FC0
2F40
ENDCHAR
STARTCHAR iacute
ENCODING 237
SWIDTH 286 0
DWIDTH 7 0
BBX 9 19 0 0
BITMAP
000900
000F40
002F40
003E00
00F800
029000
000000
07E000
03F000
02E000
03D000
07C000
0F4000
1F0000
2E0000
3D0000
7D4000
7FC000
2F4000
ENDCHAR
STARTCHAR icircumflex
ENCODING 238
SWIDTH 286 0
DWIDTH 7 0
BBX 10 19 0 0
BITMAP
000500
001F40
007F80
02E780
2F43D0
140140
000000
07E000
03F000
02E000
03D000
07C000
0F4000
1F0000
2E0000
3D0000
7D4000
7FC000
2F4000
ENDCHAR
STARTCHAR idieresis
ENCODING 239
SWIDTH 286 0
DWIDTH 7 0
BBX 11 18 0 0
BITMAP
1F82E0
2FC7F4
1F83F0
050040
000000
000000
07E000
03F000
02E000
03D000
07C000
0F4000
1F0000
2E0000
3D0000
7D4000
7FC000
2F4000
ENDCHAR
STARTCHAR eth
ENCODING 240
SWIDTH 524 0
DWIDTH 13 0
BBX 14 20 1 0
BITMAP
00005000
0000B400
00003940
00007FF0
0002FE50
000BAE00
00041E00
00002E00
006F6E00
02F6FD00
0BC0BD00
1F40BC00
3E00F800
BC01F400
FC03E000
F807D000
F80F8000
F82E0000
BDB80000
2F900000
ENDCHAR
STARTCHAR ntilde
ENCODING 241
SWIDTH 561 0
DWIDTH 13 0
BBX 14 18 0 0
BITMAP
0007D060
001FF4A0
0039FFC0
00602E00
00000000
00000000
07D06E00
03F1FF40
02E79F40
03EE1F40
07E82F00
0BF07D00
0FD0BC00
2F40F400
3E01F000
7D02F100
F801FF00
B400B900
ENDCHAR
STARTCHAR ograve
ENCODING 242
SWIDTH 514 0
DWIDTH 12 0
BBX 11 19 1 0
BITMAP
000780
000F80
000F80
000B80
0003C0
0001D0
000000
006F80
02F6E0
0BC1F4
2F40F4
7E01F4
BD02F4
FC03F0
F807E0
F40FC0
F42F40
7DBD00
1FE000
ENDCHAR
STARTCHAR oacute
ENCODING 243
SWIDTH 514 0
DWIDTH 12 0
BBX 11 19 1 0
BITMAP
000024
00007C
0000F8
0002F4
0007D0
000E00
000000
006F80
02F6E0
0BC1F4
2F40F4
7E01F4
BD02F4
FC03F0
F807E0
F40FC0
F42F40
7DBD00
1FE000
ENDCHAR
STARTCHAR ocircumflex
ENCODING 244
SWIDTH 514 0
DWIDTH 12 0
BBX 12 19 1 0
BITMAP
000014
0000BC
0002FC
001F6D
00B91F
005005
000000
006F80
02F6E0
0BC1F4
2F40F4
7E01F4
BD02F4
FC03F0
F807E0
F40FC0
F42F40
7DBD00
1FE000
ENDCHAR
STARTCHAR otilde
ENCODING 245
SWIDTH 514 0
DWIDTH 12 0
BBX 13 18 1 0
BITMAP
001B8080
007FE2C0
00E6FF40
00C0B900
00000000
00000000
006F8000
02F6E000
0BC1F400
2F40F400
7E01F400
BD02F400
FC03F000
F807E000
F40FC000
F42F4000
7DBD0000
1FE00000
ENDCHAR
STARTCHAR odieresis
ENCODING 246
SWIDTH 514 0
DWIDTH 12 0
BBX 13 18 1 0
BITMAP
007D1F80
00FE2FC0
00BD1F80
00140500
00000000
00000000
006F8000
02F6E000
0BC1F400
2F40F400
7E01F400
BD02F400
FC03F000
F807E000
F40FC000
F42F4000
7DBD0000
1FE00000
ENDCHAR
STARTCHAR divide
ENCODING 247
SWIDTH 617 0
DWIDTH 15 0
BBX 12 12 2 3
BITMAP
001400
00BD00
00BD00
001400
000000
155555
FFFFFD
000000
000000
00B800
00FD00
00B800
ENDCHAR
STARTCHAR oslash
ENCODING 248
SWIDTH 514 0
DWIDTH 12 0
BBX 12 16 1 -2
BITMAP
00002D
0000BC
006FF4
02F7F0
0BC7F4
2F49F4
7E18F4
BC31F4
F892F0
F9C7E0
F64BC0
FA2F40
BEBD00
3FE000
B40000
A00000
ENDCHAR
STARTCHAR ugrave
ENCODING 249
SWIDTH 553 0
DWIDTH 13 0
BBX 13 19 0 0
BITMAP
0000B000
0001F000
0001F000
0000F400
0000B400
00002800
00000000
02E00780
03F00BC0
02F01F40
03E03F00
07D0BD00
0F81FC00
1F42F800
2F0BB400
3D1DF000
7DB5F500
7FD1FF00
2E40B900
ENDCHAR
STARTCHAR uacute
ENCODING 250
SWIDTH 553 0
DWIDTH 13 0
BBX 13 19 0 0
BITMAP
00000600
00000F40
00001F40
00003E00
0000B800
00029000
00000000
02E00780
03F00BC0
02F01F40
03E03F00
07D0BD00
0F81FC00
1F42F800
2F0BB400
3D1DF000
7DB5F500
7FD1FF00
2E40B900
ENDCHAR
STARTCHAR ucircumflex
ENCODING 251
SWIDTH 553 0
DWIDTH 13 0
BBX 14 19 0 0
BITMAP
00000100
00001F40
00007F80
0002E7C0
001F83D0
00140050
00000000
02E00780
03F00BC0
02F01F40
03E03F00
07D0BD00
0F81FC00
1F42F800
2F0BB400
3D1DF000
7DB5F500
7FD1FF00
2E40B900
ENDCHAR
STARTCHAR udieresis
ENCODING 252
SWIDTH 553 0
DWIDTH 13 0
BBX 15 18 0 0
BITMAP
000B82F0
001FC3F4
001F83F0
00050040
00000000
00000000
02E00780
03F00BC0
02F01F40
03E03F00
07D0BD00
0F81FC00
1F42F800
2F0BB400
3D1DF000
7DB5F500
7FD1FF00
2E40B900
ENDCHAR
STARTCHAR yacute
ENCODING 253
SWIDTH 549 0
DWIDTH 13 0
BBX 13 26 0 -7
BITMAP
00000900
00002E00
00003E00
0000BC00
0001F000
00078000
00000000
02E00380
02F40BC0
02F01F80
03E02F40
07D07F00
0BC0FE00
1F42FD00
2F07BC00
3E1DF400
7D79F000
7FE2E000
2F43D000
00078000
000F4000
002E0000
00BC0000
02F00000
1F800000
05000000
ENDCHAR
STARTCHAR thorn
ENCODING 254
SWIDTH 552 0
DWIDTH 13 0
BBX 15 26 -2 -6
BITMAP
0000E000
0001F000
0002F000
0002E000
0003D000
0007C000
000B8000
000F4000
001F1B90
002EB6F0
003FC1F4
007F41F4
00BD01F4
00FC02F0
01F403E0
02F00BD0
03F01F80
03F07E00
07FAF800
0F9F9000
1F400000
2F000000
3E000000
7D000000
F8000000
B0000000
ENDCHAR
STARTCHAR ydieresis
ENCODING 255
SWIDTH 549 0
DWIDTH 13 0
BBX 14 25 0 -7
BITMAP
002F07D0
003F4BE0
003F07D0
00040140
00000000
00000000
02E00380
02F40BC0
02F01F80
03E02F40
07D07F00
0BC0FE00
1F42FD00
2F07BC00
3E1DF400
7D79F000
7FE2E000
2F43D000
00078000
000F4000
002E0000
00BC0000
02F00000
1F800000
05000000
ENDCHAR
STARTCHAR Amacron
ENCODING 256
SWIDTH 615 0
DWIDTH 15 0
BBX 20 22 -2 0
BITMAP
000001FFFE
000002FFFC
0000000000
0000000000
0000001BD0
000000BFD0
000002D7C0
00000F0B80
00002C1F40
0000B42F00
0001E03D00
0003C0BC00
000BEFFF80
00BFFFFF40
00BD02F400
007802F000
00F003E000
02E003D000
07C007D000
0F8007D500
7E0003FD00
B80001F800
ENDCHAR
STARTCHAR amacron
ENCODING 257
SWIDTH 543 0
DWIDTH 13 0
BBX 12 17 1 -1
BITMAP
00BFFF
00FFFE
000000
000000
006F5E
02F6FE
0BC0FD
1F40F8
3E01F4
BC02F0
F807E0
F80BD0
F41FC0
F43BC0
B9E7ED
2F43F8
000050
ENDCHAR
STARTCHAR Abreve
ENCODING 258
SWIDTH 615 0
DWIDTH 15 0
BBX 20 24 -2 0
BITMAP
0000001401
000000780A
0000007D6D
0000002FE0
0000000100
0000000000
0000001BD0
000000BFD0
000002D7C0
00000F0B80
00002C1F40
0000B42F00
0001E03D00
0003C0BC00
000BEFFF80
00BFFFFF40
00BD02F400
007802F000
00F003E000
02E003D000
07C007D000
0F8007D500
7E0003FD00
B80001F800
ENDCHAR
STARTCHAR abreve
ENCODING 259
SWIDTH 543 0
DWIDTH 13 0
BBX 13 19 1 -1
BITMAP
001C0240
003D0700
003E1D00
001FF400
00014000
00000000
006F5E00
02F6FE00
0BC0FD00
1F40F800
3E01F400
BC02F000
F807E000
F80BD000
F41FC000
F43BC000
B9E7ED00
2F43F800
00005000
ENDCHAR
STARTCHAR Aogonek
ENCODING 260
SWIDTH 615 0
DWIDTH 15 0
BBX 18 24 -2 -6
BITMAP
0000001BD0
000000BFD0
000002D7C0
00000F0B80
00002C1F40
0000B42F00
0001E03D00
0003C0BC00
000BEFFF80
00BFFFFF40
00BD02F400
007802F000
00F003E000
02E003D000
07C007D000
0F8007E500
7E0003FD00
B80001F800
000002C000
00000B4000
00001E0000
00002E5000
00002FD000
0000050000
ENDCHAR
STARTCHAR aogonek
ENCODING 261
SWIDTH 541 0
DWIDTH 13 0
BBX 13 18 0 -6
BITMAP
001BD780
00BDBF80
02F03F40
07D03E00
0F807D00
2F00BC00
3E01F800
3E02F400
7D07F000
3D0EF000
2E79FB00
0BD0BE00
0000B400
0002D000
00078000
000B9400
000BF000
00014000
ENDCHAR
STARTCHAR Cacute
ENCODING 262
SWIDTH 533 0
DWIDTH 13 0
BBX 15 24 1 0
BITMAP
00000010
0000003C
000000BC
000001F4
00000790
00000000
0001BE40
000BE6C0
007E01D0
01F802E0
03F007D0
0BD01FC0
1F807F40
2F407E00
3E001400
7D000000
BD000000
BC000000
BC000000
BC000000
BC001000
7D01B000
2F5BE000
06FE4000
ENDCHAR
STARTCHAR cacute
ENCODING 263
SWIDTH 468 0
DWIDTH 11 0
BBX 12 19 1 0
BITMAP
000009
00002F
00003E
0000BD
0001F4
000780
000000
006F80
02F6E0
0BC1F0
2F42F0
7E07E0
BC0780
F80000
F80000
F40000
F80700
BE6E00
1FE400
ENDCHAR
STARTCHAR Ccircumflex
ENCODING 264
SWIDTH 533 0
DWIDTH 13 0
BBX 16 23 1 0
BITMAP
000001E0
00000BF4
00007EB8
0001E46D
00000000
0001BE40
000BE6C0
007E01D0
01F802E0
03F007D0
0BD01FC0
1F807F40
2F407E00
3E001400
7D000000
BD000000
BC000000
BC000000
BC000000
BC001000
7D01B000
2F5BE000
06FE4000
ENDCHAR
STARTCHAR ccircumflex
ENCODING 265
SWIDTH 468 0
DWIDTH 11 0
BBX 12 19 1 0
BITMAP
000010
0000B8
0007FC
001F7D
01F82E
005005
000000
006F80
02F6E0
0BC1F0
2F42F0
7E07E0
BC0780
F80000
F80000
F40000
F80700
BE6E00
1FE400
ENDCHAR
STARTCHAR Cdotaccent
ENCODING 266
SWIDTH 533 0
DWIDTH 13 0
BBX 14 23 1 0
BITMAP
00001F40
00002F80
00002F40
00000500
00000000
0001BE40
000BE6C0
007E01D0
01F802E0
03F007D0
0BD01FC0
1F807F40
2F407E00
3E001400
7D000000
BD000000
BC000000
BC000000
BC000000
BC001000
7D01B000
2F5BE000
06FE4000
ENDCHAR
STARTCHAR cdotaccent
ENCODING 267
SWIDTH 468 0
DWIDTH 11 0
BBX 10 18 1 0
BITMAP
0002E0
0007F0
0007E0
000140
000000
000000
006F80
02F6E0
0BC1F0
2F42F0
7E07E0
BC0780
F80000
F80000
F40000
F80700
BE6E00
1FE400
ENDCHAR
STARTCHAR Ccaron
ENCODING 268
SWIDTH 533 0
DWIDTH 13 0
BBX 16 23 1 0
BITMAP
0000B807
00007E2F
00002FF8
00000E40
00000000
0001BE40
000BE6C0
007E01D0
01F802E0
03F007D0
0BD01FC0
1F807F40
2F407E00
3E001400
7D000000
BD000000
BC000000
BC000000
BC000000
BC001000
7D01B000
2F5BE000
06FE4000
ENDCHAR
STARTCHAR ccaron
ENCODING 269
SWIDTH 468 0
DWIDTH 11 0
BBX 14 18 1 0
BITMAP
00190090
001F07D0
000F6F40
000BF400
00064000
00000000
006F8000
02F6E000
0BC1F000
2F42F000
7E07E000
BC078000
F8000000
F8000000
F4000000
F8070000
BE6E0000
1FE40000
ENDCHAR
STARTCHAR Dcaron
ENCODING 270
SWIDTH 630 0
DWIDTH 15 0
BBX 15 23 1 0
BITMAP
0002E018
0001F5B8
0000BFD0
00007900
00000000
06BFE400
1FE96F40
0B4007D0
006801F0
00FC00F4
01F800F8
03F000F4
07D001F4
0FC002F0
1F8003F0
2F400BD0
3E000F80
7D003F40
BC00BD00
BC02F400
F81FD000
B9BE0000
2FA00000
ENDCHAR
STARTCHAR dcaron
ENCODING 271
SWIDTH 557 0
DWIDTH 13 0
BBX 19 20 1 0
BITMAP
0000005050
000000F4F8
000001F0F8
000003E0B4
000007D0E0
00000BC2C0
00000F8600
00001F4000
002FAF0000
01F9FE0000
07D0BD0000
1F40BC0000
3E00F80000
7D01F40000
BC03F00000
F807E00000
F80FE00000
F82AE10000
BDA2FE0000
2F80B80000
ENDCHAR
STARTCHAR Dcroat
ENCODING 272
SWIDTH 630 0
DWIDTH 15 0
BBX 16 18 0 0
BITMAP
01AFF900
0BF95BD0
078001F4
001900BC
003F007D
00BD007D
01F8007D
2FFFE07D
7FFFD0BC
07D000F8
0BC002F4
0F8007E0
1F400FC0
2F003F40
3E00FD00
3E07F400
2E6F8000
0BE40000
ENDCHAR
STARTCHAR dcroat
ENCODING 273
SWIDTH 557 0
DWIDTH 13 0
BBX 15 20 1 0
BITMAP
00000050
000000F4
000002F0
0002FFFC
0002ABE4
00000B80
00000F40
00001F00
002FAE00
01F9FD00
07D0BC00
1F40BC00
3E00F800
7D01F400
BC03F000
F807E000
F80FE000
F82AE100
BDA2FE00
2F80B800
ENDCHAR
STARTCHAR Emacron
ENCODING 274
SWIDTH 509 0
DWIDTH 12 0
BBX 14 22 1 0
BITMAP
000BFFE0
001FFFD0
00000000
00000000
0006FE00
007F9780
01FD03C0
03F007C0
0BD01F80
0F80BF00
1F40FD00
0F401000
0B800000
07FF0000
07F90000
2FD00000
7F000000
BD000000
F800D000
F807D000
7E6F4000
1BF90000
ENDCHAR
STARTCHAR emacron
ENCODING 275
SWIDTH 471 0
DWIDTH 11 0
BBX 11 16 1 0
BITMAP
02FFFC
03FFF8
000000
000000
006F80
02F6E0
0BC1F0
1F42F0
3E07E0
BD1FC0
BDBE00
FE9000
F80000
B80240
7E6F40
1BF900
ENDCHAR
STARTCHAR Ebreve
ENCODING 276
SWIDTH 509 0
DWIDTH 12 0
BBX 14 24 1 0
BITMAP
00014010
00038070
0007D2D0
0002FE40
00001000
00000000
0006FE00
007F9780
01FD03C0
03F007C0
0BD01F80
0F80BF00
1F40FD00
0F401000
0B800000
07FF0000
07F90000
2FD00000
7F000000
BD000000
F800D000
F807D000
7E6F4000
1BF90000
ENDCHAR
STARTCHAR ebreve
ENCODING 277
SWIDTH 471 0
DWIDTH 11 0
BBX 12 18 1 0
BITMAP
007009
00F41D
00B874
007FD0
000500
000000
006F80
02F6E0
0BC1F0
1F42F0
3E07E0
BD1FC0
BDBE00
FE9000
F80000
B80240
7E6F40
1BF900
ENDCHAR
STARTCHAR Edotaccent
ENCODING 278
SWIDTH 509 0
DWIDTH 12 0
BBX 13 23 1 0
BITMAP
0001F400
0002F800
0001F400
00005000
00000000
0006FE00
007F9780
01FD03C0
03F007C0
0BD01F80
0F80BF00
1F40FD00
0F401000
0B800000
07FF0000
07F90000
2FD00000
7F000000
BD000000
F800D000
F807D000
7E6F4000
1BF90000
ENDCHAR
STARTCHAR edotaccent
ENCODING 279
SWIDTH 471 0
DWIDTH 11 0
BBX 10 18 1 0
BITMAP
000B80
001FC0
001F80
000500
000000
000000
006F80
02F6E0
0BC1F0
1F42F0
3E07E0
BD1FC0
BDBE00
FE9000
F80000
B80240
7E6F40
1BF900
ENDCHAR
STARTCHAR Eogonek
ENCODING 280
SWIDTH 509 0
DWIDTH 12 0
BBX 13 24 1 -6
BITMAP
0006FE00
007F9780
01FD03C0
03F007C0
0BD01F80
0F80BF00
1F40FD00
0F401000
0B800000
07FF0000
07F90000
2FD00000
7F000000
BD000000
F800D000
F807D000
7E6F8000
1BF90000
01E00000
07800000
0F000000
1F500000
1FD00000
01000000
ENDCHAR
STARTCHAR eogonek
ENCODING 281
SWIDTH 471 0
DWIDTH 11 0
BBX 10 18 1 -6
BITMAP
006F80
02F6E0
0BC1F0
1F42F0
3E07E0
7D1FC0
BDBE00
FFA400
F80000
B80240
7E6F40
1BFD00
01E000
07C000
0F4000
0F5000
0FE000
010000
ENDCHAR
STARTCHAR Ecaron
ENCODING 282
SWIDTH 509 0
DWIDTH 12 0
BBX 14 23 1 0
BITMAP
000B8070
0007E2F0
0002FF80
0000E400
00000000
0006FE00
007F9780
01FD03C0
03F007C0
0BD01F80
0F80BF00
1F40FD00
0F401000
0B800000
07FF0000
07F90000
2FD00000
7F000000
BD000000
F800D000
F807D000
7E6F4000
1BF90000
ENDCHAR
STARTCHAR ecaron
ENCODING 283
SWIDTH 471 0
DWIDTH 11 0
BBX 13 18 1 0
BITMAP
00640240
007C1F40
002DBD00
002FD000
00090000
00000000
006F8000
02F6E000
0BC1F000
1F42F000
3E07E000
BD1FC000
BDBE0000
FE900000
F8000000
B8024000
7E6F4000
1BF90000
ENDCHAR
STARTCHAR Gcircumflex
ENCODING 284
SWIDTH 598 0
DWIDTH 14 0
BBX 16 23 1 0
BITMAP
000001E0
00000BF0
00007EF8
0001E47D
00000000
0001BE40
000BE6C0
007E01E0
01FC02E0
03F007D0
0BD01FC0
0FC07F40
2F403D00
3F000000
7E000000
BD02FFC0
BC07FF80
BC00BE00
BC00B400
BC00F000
7D02D000
2F5B4000
0BF90000
ENDCHAR
STARTCHAR gcircumflex
ENCODING 285
SWIDTH 526 0
DWIDTH 13 0
BBX 12 26 1 -7
BITMAP
000014
0000BC
0002FC
001F7D
00F91E
005005
000000
006F44
02F6EE
0BC0BD
1F40BC
3E00F8
BD01F4
FC03F0
F807E0
F80FD0
F82FC0
BDBB80
2F8F40
001F00
002E00
007C00
00F400
07E000
6F8000
290000
ENDCHAR
STARTCHAR Gbreve
ENCODING 286
SWIDTH 598 0
DWIDTH 14 0
BBX 16 24 1 0
BITMAP
00001401
0000780A
00007D6D
00002FE0
00000100
00000000
0001BE40
000BE6C0
007E01E0
01FC02E0
03F007D0
0BD01FC0
0FC07F40
2F403D00
3F000000
7E000000
BD02FFC0
BC07FF80
BC00BE00
BC00B400
BC00F000
7D02D000
2F5B4000
0BF90000
ENDCHAR
STARTCHAR gbreve
ENCODING 287
SWIDTH 526 0
DWIDTH 13 0
BBX 13 25 1 -7
BITMAP
001C0140
002D0740
002E1E00
000FF400
00014000
00000000
006F4400
02F6EE00
0BC0BD00
1F40BC00
3E00F800
BD01F400
FC03F000
F807E000
F80FD000
F82FC000
BDBB8000
2F8F4000
001F0000
002E0000
007C0000
00F40000
07E00000
6F800000
29000000
ENDCHAR
STARTCHAR Gdotaccent
ENCODING 288
SWIDTH 598 0
DWIDTH 14 0
BBX 14 23 1 0
BITMAP
00001F40
00003F80
00002F40
00000500
00000000
0001BE40
000BE6C0
007E01E0
01FC02E0
03F007D0
0BD01FC0
0FC07F40
2F403D00
3F000000
7E000000
BD02FFC0
BC07FF80
BC00BE00
BC00B400
BC00F000
7D02D000
2F5B4000
0BF90000
ENDCHAR
STARTCHAR gdotaccent
ENCODING 289
SWIDTH 526 0
DWIDTH 13 0
BBX 12 25 1 -7
BITMAP
0002E0
0007F4
0003F0
000140
000000
000000
006F44
02F6EE
0BC0BD
1F40BC
3E00F8
BD01F4
FC03F0
F807E0
F80FD0
F82FC0
BDBB80
2F8F40
001F00
002E00
007C00
00F400
07E000
6F8000
290000
ENDCHAR
STARTCHAR Gcommaaccent
ENCODING 290
SWIDTH 598 0
DWIDTH 14 0
BBX 14 24 1 -6
BITMAP
0001BE40
000BE6C0
007E01E0
01FC02E0
03F007D0
0BD01FC0
0FC07F40
2F403D00
3F000000
7E000000
BD02FFC0
BC07FF80
BC00BE00
BC00B400
BC00F000
7D02D000
2F5B4000
0BF90000
00000000
0F400000
1F800000
0F400000
1E000000
34000000
ENDCHAR
STARTCHAR gcommaaccent
ENCODING 291
SWIDTH 526 0
DWIDTH 13 0
BBX 12 26 1 -7
BITMAP
000028
0001E0
0002D0
0003E0
0002E0
000000
000000
006F44
02F6EE
0BC0BD
1F40BC
3E00F8
BD01F4
FC03F0
F807E0
F80FD0
F82FC0
BDBB80
2F8F40
001F00
002E00
007C00
00F400
07E000
6F8000
290000
ENDCHAR
STARTCHAR Hcircumflex
ENCODING 292
SWIDTH 668 0
DWIDTH 16 0
BBX 18 23 -1 0
BITMAP
000000B400
000002FC00
00002F7D00
0000B81F00
0000000000
01BF4001D0
02EBC002E0
000BC003E0
000F8007D0
000F8007C0
001F400B80
002F000F40
003E001F00
01BFFFFF80
02FD55BF40
00F800BC00
01F400F400
02E001F000
07D002E000
0B8003D000
1F4007D400
7D0007FD00
B40002E400
ENDCHAR
STARTCHAR hcircumflex
ENCODING 293
SWIDTH 555 0
DWIDTH 13 0
BBX 13 23 0 0
BITMAP
0001D000
000BE000
002EF000
02F4F400
07807800
002D0000
003E0000
003E0000
007D0000
00BC0000
00B80000
00F47E00
01F1FF40
02E79F40
03DE1F00
07F83E00
0BE07D00
1FC0F800
2F41F400
3E02F000
7D02F100
F802FF00
B400B800
ENDCHAR
STARTCHAR Hbar
ENCODING 294
SWIDTH 668 0
DWIDTH 16 0
BBX 20 18 -1 0
BITMAP
01BF4001D0
02EBC002F0
000BC003E0
000F8007D0
016FFFFFFD
07FFFFFFF8
012F000F40
003E001F00
007FFFFF80
02FD55BE40
00F800B800
01F400F400
02E001F000
07D002E000
0B8003D000
1F4007D400
7D0007FD00
B40002E400
ENDCHAR
STARTCHAR hbar
ENCODING 295
SWIDTH 555 0
DWIDTH 13 0
BBX 13 20 0 0
BITMAP
00050000
001F0000
002F0000
02FFFC00
017E5000
007C0000
00BC0000
00F80000
01F47E00
01F1FF40
02E79F40
03DE1F00
07E83E00
0FE07D00
1FC0F800
2F41F400
3E02F000
BD02F100
F802FF00
B400B800
ENDCHAR
STARTCHAR Itilde
ENCODING 296
SWIDTH 327 0
DWIDTH 8 0
BBX 13 23 0 0
BITMAP
002E0240
00FF8700
02DBFD00
0242F400
00000000
02FD0000
07AF4000
001F4000
002F4000
002F0000
003E0000
007E0000
00BD0000
00BC0000
00F80000
01F40000
03E00000
07D00000
0BC00000
1F400000
3E000000
BC000000
E0000000
ENDCHAR
STARTCHAR itilde
ENCODING 297
SWIDTH 286 0
DWIDTH 7 0
BBX 11 18 0 0
BITMAP
02E024
0BFC74
1D7FE0
241F40
000000
000000
07E000
03F000
02E000
03D000
07C000
0F4000
1F0000
2E0000
3D0000
7D4000
7FC000
2F4000
ENDCHAR
STARTCHAR Imacron
ENCODING 298
SWIDTH 327 0
DWIDTH 8 0
BBX 12 22 0 0
BITMAP
01FFFE
02FFFC
000000
000000
02FD00
07AF40
001F40
002F40
002F00
003E00
007E00
00BD00
00BC00
00F800
01F400
03E000
07D000
0BC000
1F4000
3E0000
BC0000
E00000
ENDCHAR
STARTCHAR imacron
ENCODING 299
SWIDTH 286 0
DWIDTH 7 0
BBX 10 16 0 0
BITMAP
1FFFD0
2FFF80
000000
000000
07E000
03F000
02E000
03D000
07C000
0F4000
1F0000
2E0000
3D0000
7D4000
7FC000
2F4000
ENDCHAR
STARTCHAR Ibreve
ENCODING 300
SWIDTH 327 0
DWIDTH 8 0
BBX 12 24 0 0
BITMAP
001401
00780A
007D6C
002FE0
000100
000000
02FD00
07AF40
001F40
002F40
002F00
003E00
007E00
00BD00
00BC00
00F800
01F400
03E000
07D000
0BC000
1F4000
3E0000
BC0000
E00000
ENDCHAR
STARTCHAR ibreve
ENCODING 301
SWIDTH 286 0
DWIDTH 7 0
BBX 10 18 0 0
BITMAP
028020
0780A0
07D2C0
02FE00
001000
000000
07E000
03F000
02E000
03D000
07C000
0F4000
1F0000
2E0000
3D0000
7D4000
7FC000
2F4000
ENDCHAR
STARTCHAR Iogonek
ENCODING 302
SWIDTH 327 0
DWIDTH 8 0
BBX 13 24 -4 -6
BITMAP
0002FD00
0007AF40
00001F40
00002F40
00002F00
00003E00
00007E00
0000BD00
0000BC00
0000F800
0001F400
0003F000
0007D000
000BC000
001F4000
002E0000
00BC0000
01E00000
07800000
1E000000
3D000000
7D400000
3F800000
04000000
ENDCHAR
STARTCHAR iogonek
ENCODING 303
SWIDTH 297 0
DWIDTH 7 0
BBX 9 24 -1 -6
BITMAP
000B80
002FC0
001F80
000500
000000
000000
00BC00
00BD00
00BC00
00B800
01F400
02E000
03D000
07C000
0B8000
0F4000
0FF400
0BE000
074000
1E0000
7C0000
BD4000
7F4000
040000
ENDCHAR
STARTCHAR Idotaccent
ENCODING 304
SWIDTH 327 0
DWIDTH 8 0
BBX 9 23 0 0
BITMAP
001F40
003F80
002F40
000500
000000
02FD00
07AF40
001F40
002F40
002F00
003E00
007E00
00BD00
00BC00
00F800
01F400
03E000
07D000
0BC000
1F4000
3E0000
BC0000
E00000
ENDCHAR
STARTCHAR dotlessi
ENCODING 305
SWIDTH 286 0
DWIDTH 7 0
BBX 6 12 0 0
BITMAP
07E0
03F0
02E0
03D0
07C0
0F40
1F00
2E00
3D00
7D40
7FC0
2F40
ENDCHAR
STARTCHAR IJ
ENCODING 306
SWIDTH 720 0
DWIDTH 17 0
BBX 18 24 0 -6
BITMAP
02FD01BF90
07AF4BF6F0
001F6F82F0
002F5D03F0
002F0007E0
003E0007D0
007E000BC0
00BD000FC0
00BC001F80
00F8002F00
01F4003E00
03E000BD00
07D000FC00
0BC001F800
1F4003F000
3E0007E000
BC000FC000
E0001F4000
00003E0000
0000BC0000
0002F40000
000BD00000
006F400000
00F8000000
ENDCHAR
STARTCHAR ij
ENCODING 307
SWIDTH 567 0
DWIDTH 14 0
BBX 14 24 0 -6
BITMAP
007D02E0
00BE0BF0
00BD07E0
00140140
00000000
00000000
07E01F40
03F01F80
02E00F80
03D01F40
07C01F40
0F402F00
1F003E00
2E007D00
3D00BC00
7D40F800
7FC1F400
2F42E000
0007D000
000B8000
001F0000
007D0000
01F40000
07800000
ENDCHAR
STARTCHAR Jcircumflex
ENCODING 308
SWIDTH 393 0
DWIDTH 9 0
BBX 17 30 -4 -6
BITMAP
0000001400
000000BD00
000007FE00
00002F5F40
0000140540
0000000000
0001BF9000
000BFAF000
002F82F000
001A02F000
000003E000
000007E000
00000BD000
00000FC000
00001F8000
00002F4000
00003F0000
00007E0000
0000BC0000
0001F80000
0002F40000
0007E00000
000BD00000
001F800000
003F000000
00BD000000
01F4000000
07D0000000
2F40000000
F800000000
ENDCHAR
STARTCHAR jcircumflex
ENCODING 309
SWIDTH 282 0
DWIDTH 7 0
BBX 13 25 -4 -6
BITMAP
00001E00
00007F00
0002EF40
001F8B80
00390780
00000000
00000000
0007E000
0007F000
0003E000
0003E000
0007D000
0007C000
000B8000
000F8000
001F0000
002E0000
007D0000
00BC0000
00F40000
02E00000
07D00000
0F400000
7D000000
E4000000
ENDCHAR
STARTCHAR Kcommaaccent
ENCODING 310
SWIDTH 616 0
DWIDTH 15 0
BBX 17 24 -1 -6
BITMAP
02FD001E00
03DF401F40
000F401F80
001F401F40
002F403F00
002F00BD00
003E02F400
007E0BD000
00BD2E0000
00FDF40000
01FFD00000
02F7E00000
03E1F80000
0BD0BD0000
0F803F0000
2F401F8000
BD000BE500
F40002F900
0000000000
0078000000
00BD000000
007C000000
00B4000000
0190000000
ENDCHAR
STARTCHAR kcommaaccent
ENCODING 311
SWIDTH 497 0
DWIDTH 12 0
BBX 12 26 0 -6
BITMAP
000400
001F00
002F00
002E00
003E00
007D00
007C00
00B800
00F43E
01F02F
02E03F
03D0BD
07C7F4
0BBE40
0FF800
2FBC00
3E3E00
7C2F84
F80FFC
B402E4
000000
078000
0BC000
07C000
0B4000
190000
ENDCHAR
STARTCHAR kgreenlandic
ENCODING 312
SWIDTH 497 0
DWIDTH 12 0
BBX 13 12 0 0
BITMAP
07D02E00
03F02F40
02E02F00
03D0BD00
07C7F400
0BEF8000
0FFC0000
2FBD0000
3F2E0000
7D1F8400
FC0BFD00
B402F400
ENDCHAR
STARTCHAR Lacute
ENCODING 313
SWIDTH 517 0
DWIDTH 12 0
BBX 16 24 -1 0
BITMAP
00000004
0000002D
0000007D
000000F8
00000290
00000000
00002F90
0000B9B0
0002E074
0007D0B4
000F80F4
002F42F0
003E0BE0
007D3F80
00BC2E00
00F80000
01F40000
03E00000
07D00000
0B800000
0F400000
2E6AF900
7FFFFF00
3E955B00
ENDCHAR
STARTCHAR lacute
ENCODING 314
SWIDTH 279 0
DWIDTH 7 0
BBX 11 24 0 0
BITMAP
000010
0000B8
0000F8
0002E0
000B40
000000
002C00
003D00
007D00
007C00
00B800
00F400
01F000
02E000
03D000
07C000
0B8000
1F4000
2F0000
3E0000
3D0000
7D4000
3FD000
1F4000
ENDCHAR
STARTCHAR Lcommaaccent
ENCODING 315
SWIDTH 517 0
DWIDTH 12 0
BBX 15 24 -1 -6
BITMAP
00002F90
0000B9B0
0002E074
0007D0B4
000F80F4
002F42F0
003E0BE0
007D3F80
00BC2E00
00F80000
01F40000
03E00000
07D00000
0B800000
0F400000
2E6AF900
7FFFFF00
3E955B00
00000000
07D00000
07D00000
03D00000
07800000
1D000000
ENDCHAR
STARTCHAR lcommaaccent
ENCODING 316
SWIDTH 279 0
DWIDTH 7 0
BBX 8 26 0 -6
BITMAP
0014
002E
003E
003D
007D
00BC
00F8
01F4
02F0
03E0
07D0
0BC0
0F80
1F40
2F00
2E00
3D00
7D40
3FD0
1F40
0000
2D00
3E00
2D00
7800
E000
ENDCHAR
STARTCHAR Lcaron
ENCODING 317
SWIDTH 517 0
DWIDTH 12 0
BBX 19 23 -1 0
BITMAP
0000000014
00000000BC
000000007C
0000000078
00000000B4
00002F91D0
0000B9B140
0002E07400
0007D0B400
000F80F400
002F42F000
003E0BE000
007D3F8000
00BC2E0000
00F8000000
01F4000000
03E0000000
07D0000000
0B80000000
0F40000000
2E6AF90000
7FFFFF0000
3E955B0000
ENDCHAR
STARTCHAR lcaron
ENCODING 318
SWIDTH 467 0
DWIDTH 11 0
BBX 13 20 0 0
BITMAP
00140140
002E07C0
003E07C0
003D07C0
007D0B40
00BC1E00
00F81400
01F40000
02F00000
03E00000
07D00000
0BC00000
0F800000
1F400000
2F000000
2E000000
3D000000
7D400000
3FD00000
1F400000
ENDCHAR
STARTCHAR Ldot
ENCODING 319
SWIDTH 668 0
DWIDTH 16 0
BBX 18 18 -1 0
BITMAP
00002F9000
0000B9B000
0002E07400
0007D0B400
000F80F400
002F42F000
003E0BE000
007D3F8000
00BC2E0100
00F8000BD0
01F4000FD0
03E0000B80
07D0000000
0B80000000
0F40000000
2E6AF90000
7FFFFF0000
3E955B0000
ENDCHAR
STARTCHAR ldot
ENCODING 320
SWIDTH 489 0
DWIDTH 12 0
BBX 12 20 0 0
BITMAP
001400
002E00
003E00
003D00
007D00
00BC00
00F800
01F400
02F000
03E000
07D0B8
0BC1FD
0F80FD
1F4064
2F0000
2E0000
3D0000
7D4000
3FD000
1F4000
ENDCHAR
STARTCHAR Lslash
ENCODING 321
SWIDTH 517 0
DWIDTH 12 0
BBX 15 18 -1 0
BITMAP
00002F80
0000B9B0
0002E074
0007D074
000F80F4
002F42F0
003F0BE0
007E2FC0
00BC3F40
00F80400
06FF8000
3FFFD000
17E00000
0BC00000
0F400000
2E16A800
7FFFFF00
3E955B00
ENDCHAR
STARTCHAR lslash
ENCODING 322
SWIDTH 279 0
DWIDTH 7 0
BBX 11 20 0 0
BITMAP
00E400
01FFF8
003E40
003D00
007C00
00B800
00F400
01F000
02E000
03D000
07C000
0B8000
0F4000
1F4000
2F0000
3E0000
3D0000
7D4000
3FD000
1F4000
ENDCHAR
STARTCHAR Nacute
ENCODING 323
SWIDTH 708 0
DWIDTH 17 0
BBX 19 24 0 0
BITMAP
0000000040
00000001E0
00000002F0
0000000BD0
0000001E00
0000000000
0001F402E0
0007F403F4
001FF001F8
003EF001F8
00BAF001F4
00F2F002F0
02E2F003E0
03C2F007C0
0782F00B80
0B41F40F00
0F01F42D00
1E00F83C00
2D00FC7400
3D00BDF000
7C007FD000
78002FC000
B8001F8000
7400074000
ENDCHAR
STARTCHAR nacute
ENCODING 324
SWIDTH 561 0
DWIDTH 13 0
BBX 13 19 0 0
BITMAP
00000600
00000F40
00001F40
00003E00
0000B800
0001D000
00000000
07D06E00
03F1FF40
02E79F40
03EE1F40
07E82F00
0BF07D00
0FD0BC00
2F40F400
3E01F000
7D02F100
F801FF00
B400B900
ENDCHAR
STARTCHAR Ncommaaccent
ENCODING 325
SWIDTH 708 0
DWIDTH 17 0
BBX 19 24 0 -6
BITMAP
0001F402E0
0007F403F4
001FF001F8
003EF001F8
00BAF001F4
00F2F002F0
02E2F003E0
03C2F007C0
0782F00B80
0B41F40F00
0F01F42D00
1E00F83C00
2D00FC7400
3D00BDF000
7C007FD000
78002FC000
B8001F8000
7400074000
0000000000
000B400000
000F800000
000B400000
001E000000
0038000000
ENDCHAR
STARTCHAR ncommaaccent
ENCODING 326
SWIDTH 561 0
DWIDTH 13 0
BBX 13 18 0 -6
BITMAP
07D06E00
03F1FF40
02E79F40
03EE1F40
07E82F00
0BF07D00
0FD0BC00
2F40F400
3E01F000
7D02F100
F801FF00
B400B900
00000000
07D00000
07D00000
03D00000
07800000
1D000000
ENDCHAR
STARTCHAR Ncaron
ENCODING 327
SWIDTH 708 0
DWIDTH 17 0
BBX 19 23 0 0
BITMAP
000002D018
000002F5B8
000000BFD0
0000007900
0000000000
0001F402E0
0007F403F4
001FF001F8
003EF001F8
00BAF001F4
00F2F002F0
02E2F003E0
03C2F007C0
0782F00B80
0B41F40F00
0F01F42D00
1E00F83C00
2D00FC7400
3D00BDF000
7C007FD000
78002FC000
B8001F8000
7400074000
ENDCHAR
STARTCHAR ncaron
ENCODING 328
SWIDTH 561 0
DWIDTH 13 0
BBX 15 18 0 0
BITMAP
00064024
0007C1F4
0003DBD0
0002FD00
00019000
00000000
07D06E00
03F1FF40
02E79F40
03EE1F40
07E82F00
0BF07D00
0FD0BC00
2F40F400
3E01F000
7D02F100
F801FF00
B400B900
ENDCHAR
STARTCHAR Eng
ENCODING 330
SWIDTH 698 0
DWIDTH 17 0
BBX 19 24 0 -6
BITMAP
0001F007D0
000BF007F0
001FE002F4
007FE002F4
00B7E002F0
01E3E002F0
02D3E003E0
07C3E003D0
0B82F007C0
0F02F00B80
1E02F40F40
2D01F81E00
3D00F82D00
7C00BC3800
B8007EB400
B4003FE000
B4001FC000
70001F4000
00002E0000
0000B80000
0002F00000
000BC00000
006E000000
01E4000000
ENDCHAR
STARTCHAR eng
ENCODING 331
SWIDTH 561 0
DWIDTH 13 0
BBX 13 18 0 -6
BITMAP
07D06E00
03F1FF40
02E79F40
03EE0F40
07E81F00
0BF02E00
0FD03D00
2F407C00
3E00B800
7D01F400
F802E000
B407D000
000F8000
001F0000
007D0000
00F80000
03E00000
0B400000
ENDCHAR
STARTCHAR Omacron
ENCODING 332
SWIDTH 655 0
DWIDTH 16 0
BBX 16 22 1 0
BITMAP
0000BFFF
0001FFFD
00000000
00000000
0001BF80
000BE6F0
002F40B8
00BD007C
02F4007C
07E0007C
0FC000BC
1F8000F8
2F0001F8
3E0002F4
7D0003F0
7D000BD0
BC000F80
BC002F00
7C00BD00
3D02F400
1F5FD000
06F90000
ENDCHAR
STARTCHAR omacron
ENCODING 333
SWIDTH 514 0
DWIDTH 12 0
BBX 13 16 1 0
BITMAP
007FFF40
00FFFE00
00000000
00000000
006F8000
02F6E000
0BC1F400
2F40F400
7E01F400
BD02F400
FC03F000
F807E000
F40FC000
F42F4000
7DBD0000
1FE00000
ENDCHAR
STARTCHAR Obreve
ENCODING 334
SWIDTH 655 0
DWIDTH 16 0
BBX 16 24 1 0
BITMAP
00001401
00003C07
00003E1D
00001FF4
00000100
00000000
0001BF80
000BE6F0
002F40B8
00BD007C
02F4007C
07E0007C
0FC000BC
1F8000F8
2F0001F8
3E0002F4
7D0003F0
7D000BD0
BC000F80
BC002F00
7C00BD00
3D02F400
1F5FD000
06F90000
ENDCHAR
STARTCHAR obreve
ENCODING 335
SWIDTH 514 0
DWIDTH 12 0
BBX 13 18 1 0
BITMAP
001D0140
002D0340
002E1E00
000FF400
00014000
00000000
006F8000
02F6E000
0BC1F400
2F40F400
7E01F400
BD02F400
FC03F000
F807E000
F40FC000
F42F4000
7DBD0000
1FE00000
ENDCHAR
STARTCHAR Ohungarumlaut
ENCODING 336
SWIDTH 655 0
DWIDTH 16 0
BBX 17 24 1 0
BITMAP
0000010100
00000B4780
00000F4B40
00002D1E00
0000747400
0000000000
0001BF8000
000BE6F000
002F40B800
00BD007C00
02F4007C00
07E0007C00
0FC000BC00
1F8000F800
2F0001F800
3E0002F400
7D0003F000
7D000BD000
BC000F8000
BC002F0000
7C00BD0000
3D02F40000
1F5FD00000
06F9000000
ENDCHAR
STARTCHAR ohungarumlaut
ENCODING 337
SWIDTH 514 0
DWIDTH 12 0
BBX 13 19 1 0
BITMAP
00024240
000783C0
000F4B80
001E1F00
00783C00
00E0A000
00000000
006F8000
02F6E000
0BC1F400
2F40F400
7E01F400
BD02F400
FC03F000
F807E000
F40FC000
F42F4000
7DBD0000
1FE00000
ENDCHAR
STARTCHAR OE
ENCODING 338
SWIDTH 900 0
DWIDTH 22 0
BBX 23 18 2 0
BITMAP
0000BF91BF90
000BE6FFF9B4
002F40BF8078
00BD00BE00B8
02F800F802F4
07E001F40FE0
0BD002F01F80
1F8002F00500
2F4001F40000
3F00007FE000
3E0000BF9000
7D0003F80000
7C000BE00000
7C001F800000
7C007F401C00
3D01FF40BC00
1F5BEFD7F400
06FE42FE4000
ENDCHAR
STARTCHAR oe
ENCODING 339
SWIDTH 777 0
DWIDTH 19 0
BBX 18 12 1 0
BITMAP
002F906F80
01F9F6E7D0
07E0BF82E0
0F80BF02E0
2F40BE07D0
3E00FC1F80
7D01FDBE00
BC02FFA000
BC07F40000
7C1FF80240
3E7FBD6F00
0BE82FE800
ENDCHAR
STARTCHAR Racute
ENCODING 340
SWIDTH 623 0
DWIDTH 15 0
BBX 16 25 -1 -1
BITMAP
00000010
0000003C
0000007D
000001F4
00000390
00000000
001AFF90
00BF95B8
01F8002D
0053802F
000BC02F
001F803F
002F407E
003F01FC
007E0BE0
00BEBF80
00FFF800
01F5F400
02F0BC00
07D07D00
0BC02F00
1F401F80
7E000BE4
740002F8
00000010
ENDCHAR
STARTCHAR racute
ENCODING 341
SWIDTH 407 0
DWIDTH 10 0
BBX 11 19 0 0
BITMAP
000024
00007C
0000BC
0001F4
0007D0
000E00
000000
07D0B8
07E3F8
03DAB4
03E800
07F000
0BD000
0F8000
1F4000
2F0000
7D0000
BC0000
780000
ENDCHAR
STARTCHAR Rcommaaccent
ENCODING 342
SWIDTH 623 0
DWIDTH 15 0
BBX 16 24 -1 -6
BITMAP
001AFF90
00BF95B8
01F8002D
0053802F
000BC02F
001F803F
002F407E
003F01FC
007E0BE0
00BEBF80
00FFF800
01F5F400
02F0BC00
07D07D00
0BC02F00
1F401F80
7E000BE4
740002F8
00000010
00B80000
00FC0000
00B80000
00F00000
02800000
ENDCHAR
STARTCHAR rcommaaccent
ENCODING 343
SWIDTH 407 0
DWIDTH 10 0
BBX 13 18 -2 -6
BITMAP
007D0B40
007E3F80
003DAB40
007E8000
007F0000
00BD0000
00F80000
01F40000
02F00000
07D00000
0BC00000
07800000
00000000
1F000000
1F400000
0F000000
2D000000
74000000
ENDCHAR
STARTCHAR Rcaron
ENCODING 344
SWIDTH 623 0
DWIDTH 15 0
BBX 16 24 -1 -1
BITMAP
0000B807
00007E2F
00001FF8
00000A40
00000000
001AFF90
00BF95B8
01F8002D
0053802F
000BC02F
001F803F
002F407E
003F01FC
007E0BE0
00BEBF80
00FFF800
01F5F400
02F0BC00
07D07D00
0BC02F00
1F401F80
7E000BE4
740002F8
00000010
ENDCHAR
STARTCHAR rcaron
ENCODING 345
SWIDTH 407 0
DWIDTH 10 0
BBX 13 18 0 0
BITMAP
00280180
002E0B80
001F7E00
000FE400
000A4000
00000000
07D0B800
07E3F800
03DAB400
03E80000
07F00000
0BD00000
0F800000
1F400000
2F000000
7D000000
BC000000
78000000
ENDCHAR
STARTCHAR Sacute
ENCODING 346
SWIDTH 474 0
DWIDTH 11 0
BBX 15 24 0 0
BITMAP
00000040
000000F0
000002F4
000007D0
00000E40
00000000
0006F900
002E5B40
00B80380
01F003C0
03E007C0
07D00FC0
07E02F40
07E07E00
03F41400
02F80000
00FE0000
007F0000
001F8000
2C0F8000
7C0B8000
7C0B4000
3E6D0000
1BE40000
ENDCHAR
STARTCHAR sacute
ENCODING 347
SWIDTH 423 0
DWIDTH 10 0
BBX 12 19 0 0
BITMAP
000024
00003D
0000BD
0000F8
0003E0
000A40
000000
00BF80
02E6F0
07C1F0
0BC1E0
0BD000
03F400
02F800
00BD00
247E00
B83D00
BEB800
2F9000
ENDCHAR
STARTCHAR Scircumflex
ENCODING 348
SWIDTH 474 0
DWIDTH 11 0
BBX 15 23 0 0
BITMAP
00000780
00001FD0
0001BAF0
000390B4
00000000
0006F900
002E5B40
00B80380
01F003C0
03E007C0
07D00FC0
07E02F40
07E07E00
03F41400
02F80000
00FE0000
007F0000
001F8000
2C0F8000
7C0B8000
7C0B4000
3E6D0000
1BE40000
ENDCHAR
STARTCHAR scircumflex
ENCODING 349
SWIDTH 423 0
DWIDTH 10 0
BBX 12 19 0 0
BITMAP
000010
0000B8
0007FC
001F7D
01F82E
005005
000000
00BF80
02E6F0
07C1F0
0BC1E0
0BD000
03F400
02F800
00BD00
247E00
B83D00
BEB800
2F9000
ENDCHAR
STARTCHAR Scedilla
ENCODING 350
SWIDTH 474 0
DWIDTH 11 0
BBX 13 24 0 -6
BITMAP
0006F900
002E5B40
00B803C0
01F003C0
03E007C0
07D00FC0
07D03F40
07E07E00
03F41400
02F80000
00FD0000
007F0000
001F4000
2C0B8000
7C0B8000
7D0B4000
3FBE0000
1BE40000
02800000
02D00000
03D00000
1FC00000
2F400000
04000000
ENDCHAR
STARTCHAR scedilla
ENCODING 351
SWIDTH 423 0
DWIDTH 10 0
BBX 10 17 0 -5
BITMAP
00BF80
02E6F0
07C1F0
0BC1E0
0BD000
07F000
02F800
00FD00
747E00
B83D00
7DB800
1FE000
070000
074000
0F4000
7F0000
7D0000
ENDCHAR
STARTCHAR Scaron
ENCODING 352
SWIDTH 474 0
DWIDTH 11 0
BBX 15 23 0 0
BITMAP
0002E01C
0001F8BC
0000BFE0
00003900
00000000
0006F900
002E5B40
00B80380
01F003C0
03E007C0
07D00FC0
07E02F40
07E07E00
03F41400
02F80000
00FE0000
007F0000
001F8000
2C0F8000
7C0B8000
7C0B4000
3E6D0000
1BE40000
ENDCHAR
STARTCHAR scaron
ENCODING 353
SWIDTH 423 0
DWIDTH 10 0
BBX 14 18 0 0
BITMAP
00190090
001F07D0
000F6F40
000BF400
00064000
00000000
00BF8000
02E6F000
07C1F000
0BC1E000
0BD00000
03F40000
02F80000
00BD0000
247E0000
B83D0000
BEB80000
2F900000
ENDCHAR
STARTCHAR Tcommaaccent
ENCODING 354
SWIDTH 471 0
DWIDTH 11 0
BBX 14 24 1 -6
BITMAP
0BFA5060
2FFFFFF0
7E57FF90
780BC000
240F8000
001F4000
002F0000
003F0000
007E0000
00BD0000
00BC0000
00F80000
01F00000
03E00000
07D00000
0F800000
2E000000
78000000
00000000
1E000000
2F000000
1E000000
2D000000
A0000000
ENDCHAR
STARTCHAR tcommaaccent
ENCODING 355
SWIDTH 358 0
DWIDTH 9 0
BBX 10 22 0 -6
BITMAP
001400
003D00
00BC00
00F800
1FFFD0
07E500
07D000
0BC000
0F8000
1F4000
1F0000
2E0000
2E0000
2E1D00
2FF800
0BD000
000000
2E0000
3F0000
2E0000
3C0000
A00000
ENDCHAR
STARTCHAR Tcaron
ENCODING 356
SWIDTH 471 0
DWIDTH 11 0
BBX 15 23 1 0
BITMAP
0002D018
0002F5B8
0000FFD0
00007900
00000000
0BFA5060
2FFFFFF0
7E57FF90
780BC000
240F8000
001F4000
002F0000
003F0000
007E0000
00BD0000
00BC0000
00F80000
01F00000
03E00000
07D00000
0F800000
2E000000
78000000
ENDCHAR
STARTCHAR tcaron
ENCODING 357
SWIDTH 497 0
DWIDTH 12 0
BBX 13 20 2 0
BITMAP
00000500
00001F40
00001F40
00000F00
00001D00
00B47800
01F45000
03E00000
7FFF4000
1F940000
1F400000
2F000000
3E000000
7D000000
7C000000
B8000000
B8000000
B8740000
BFE00000
2F400000
ENDCHAR
STARTCHAR Tbar
ENCODING 358
SWIDTH 471 0
DWIDTH 11 0
BBX 14 18 1 0
BITMAP
0BFA5060
3FFFFFF0
7E57FF90
780BC000
240F8000
001F4000
002F0000
003E0000
7FFFD000
15BD0000
00F80000
01F40000
02F00000
03E00000
07C00000
0F800000
2E000000
78000000
ENDCHAR
STARTCHAR tbar
ENCODING 359
SWIDTH 358 0
DWIDTH 9 0
BBX 10 15 0 0
BITMAP
002D00
007D00
00F800
1FFFD0
07E500
07D000
0BC000
7FFF80
1F5500
1F0000
2E0000
2E0000
2E1D00
2FF800
0BD000
ENDCHAR
STARTCHAR Utilde
ENCODING 360
SWIDTH 624 0
DWIDTH 15 0
BBX 17 23 0 0
BITMAP
00006F0240
0000FF8700
0002C7FD00
000241F400
0000000000
007E000B40
007F001F40
002F002F00
003E007E00
007D00BD00
00F801F800
01F402F400
02F007F000
07D00FE000
0BC01FD000
0F803FC000
1F00BB8000
3E01DF4000
7D038F4000
7C0B1F0000
BD6C1F5400
7FF01FF400
2F800BD000
ENDCHAR
STARTCHAR utilde
ENCODING 361
SWIDTH 553 0
DWIDTH 13 0
BBX 15 18 0 0
BITMAP
0002F414
000BFD74
001D7FE0
00141F80
00000000
00000000
02E00780
03F00BC0
02F01F40
03E03F00
07D0BD00
0F81FC00
1F42F800
2F0BB400
3D1DF000
7DB5F500
7FD1FF00
2E40B900
ENDCHAR
STARTCHAR Umacron
ENCODING 362
SWIDTH 624 0
DWIDTH 15 0
BBX 17 22 0 0
BITMAP
0001FFFE00
0002FFFD00
0000000000
0000000000
007E000B40
007F001F40
002F002F00
003E007E00
007D00BD00
00F801F800
01F402F400
02F007F000
07D00FE000
0BC01FD000
0F803FC000
1F00BB8000
3E01DF4000
7D038F4000
7C0B1F0000
BD6C1F5400
7FF01FF400
2F800BD000
ENDCHAR
STARTCHAR umacron
ENCODING 363
SWIDTH 553 0
DWIDTH 13 0
BBX 14 16 0 0
BITMAP
000BFFE0
001FFFD0
00000000
00000000
02E00780
03F00BC0
02F01F40
03E03F00
07D0BD00
0F81FC00
1F42F800
2F0BB400
3D1DF000
7DB5F500
7FD1FF00
2E40B900
ENDCHAR
STARTCHAR Ubreve
ENCODING 364
SWIDTH 624 0
DWIDTH 15 0
BBX 17 24 0 0
BITMAP
0000140100
0000780A00
00007D6D00
00002FE000
0000010000
0000000000
007E000B40
007F001F40
002F002F00
003E007E00
007D00BD00
00F801F800
01F402F400
02F007F000
07D00FE000
0BC01FD000
0F803FC000
1F00BB8000
3E01DF4000
7D038F4000
7C0B1F0000
BD6C1F5400
7FF01FF400
2F800BD000
ENDCHAR
STARTCHAR ubreve
ENCODING 365
SWIDTH 553 0
DWIDTH 13 0
BBX 14 18 0 0
BITMAP
00028020
0007C0A0
0003D2D0
0001FE40
00001000
00000000
02E00780
03F00BC0
02F01F40
03E03F00
07D0BD00
0F81FC00
1F42F800
2F0BB400
3D1DF000
7DB5F500
7FD1FF00
2E40B900
ENDCHAR
STARTCHAR Uring
ENCODING 366
SWIDTH 624 0
DWIDTH 15 0
BBX 17 23 0 0
BITMAP
000007F400
00002E7C00
00003C3C00
0000783C00
00007CB800
007E2FEB40
007F051F40
002F002F00
003E007E00
007D00BD00
00F801F800
01F402F400
02F007F000
07D00FE000
0BC01FD000
0F803FC000
1F00BB8000
3E01EF4000
7D038F4000
7C0B1F0000
BD6D1F5400
7FF41FF400
2F800BD000
ENDCHAR
STARTCHAR uring
ENCODING 367
SWIDTH 553 0
DWIDTH 13 0
BBX 14 19 0 0
BITMAP
00006F40
0002E7C0
0003C3D0
0003C780
0002FE00
00001000
00000000
02E00780
03F00BC0
02F01F40
03E03F00
07D0BD00
0F81FC00
1F42F800
2F0BB400
3D1DF000
7DB5F500
7FD1FF00
2E40B900
ENDCHAR
STARTCHAR Uhungarumlaut
ENCODING 368
SWIDTH 624 0
DWIDTH 15 0
BBX 17 24 0 0
BITMAP
0000050500
00000F0B40
00001E0F00
00003D2D00
0000A0A400
0000000000
007E000B40
007F001F40
002F002F00
003E007E00
007D00BD00
00F801F800
01F402F400
02F007F000
07D00FE000
0BC01FD000
0F803FC000
1F00BB8000
3E01DF4000
7D038F4000
7C0B1F0000
BD6C1F5400
7FF01FF400
2F800BD000
ENDCHAR
STARTCHAR uhungarumlaut
ENCODING 369
SWIDTH 553 0
DWIDTH 13 0
BBX 15 19 0 0
BITMAP
00006060
0000B0B4
0001F0F0
0003D2D0
000B4B80
00291D00
00000000
02E00780
03F00BC0
02F01F40
03E03F00
07D0BD00
0F81FC00
1F42F800
2F0BB400
3D1DF000
7DB5F500
7FD1FF00
2E40B900
ENDCHAR
STARTCHAR Uogonek
ENCODING 370
SWIDTH 684 0
DWIDTH 16 0
BBX 17 24 1 -6
BITMAP
007D000B00
007E001F40
003E003E00
007D00BD00
00BC00FC00
01F802F400
02F003F000
03E00BE000
0BC01FD000
0F802FC000
1F407F8000
2E00EF4000
3D02DF4000
7C075F0000
BC1E2F0000
BC782F1000
BFE01FF000
2F400BD000
00000B0000
00003C0000
0000B80000
0000F90000
0000BE0000
0000100000
ENDCHAR
STARTCHAR uogonek
ENCODING 371
SWIDTH 553 0
DWIDTH 13 0
BBX 13 18 0 -6
BITMAP
02E00780
03F00BC0
02F01F40
03E03F00
07D0BD00
0F81FC00
1F42F800
2F0BB400
3D1DF000
7DB5F500
7FD1FF00
2E40BD00
0000B000
0002D000
000B8000
000F9400
000BE000
00010000
ENDCHAR
STARTCHAR Wcircumflex
ENCODING 372
SWIDTH 941 0
DWIDTH 23 0
BBX 23 23 1 0
BITMAP
000000078000
0000002FC000
000001FAE000
00000791F400
000000000000
06F4000001F4
3FFD000002F8
2E6E000001FC
003E000400FC
00BD007E00FC
01F802FC00F8
02F40BF400F8
07E02FE001F4
0BD07FC002F0
0F81FF8003E0
1F43DF4007C0
2F0B5F400B80
3E1E2F001F00
7D382E003D00
7CB02E00B400
7DD02E02D000
3F801F9F4000
1E0007E40000
ENDCHAR
STARTCHAR wcircumflex
ENCODING 373
SWIDTH 750 0
DWIDTH 18 0
BBX 17 19 1 0
BITMAP
0000014000
00000BC000
00002FC000
0001F6D000
000B91F000
0005005000
0000000000
1F80001F00
1FC07C1F80
0B80BC0F80
0F81F40B80
1F03F00F40
2E0BD00F00
3D1FC01E00
7C3BC03C00
B8A780B400
FB87C2E000
FE03FF4000
B801F90000
ENDCHAR
STARTCHAR Ycircumflex
ENCODING 374
SWIDTH 580 0
DWIDTH 14 0
BBX 17 30 0 -6
BITMAP
0000008000
000007E000
00002FF400
0001F8B800
0000401400
0000000000
007E000B40
007F001F40
003E002F00
003E007D00
00BC00BC00
00F801F800
01F403F400
03E007F000
07D00FE000
0BC02FD000
0F403F8000
2F00BF4000
3E01EF0000
7D03AE0000
7C0E3D0000
BD7CB80000
7FF0F40000
2F82E00000
0007C00000
000F400000
003E000000
00F8000000
07E0000000
2E40000000
ENDCHAR
STARTCHAR ycircumflex
ENCODING 375
SWIDTH 549 0
DWIDTH 13 0
BBX 13 26 0 -7
BITMAP
00000400
00002F00
0000BF00
0007DF40
003E0B80
00140140
00000000
02E00380
02F40BC0
02F01F80
03E02F40
07D07F00
0BC0FE00
1F42FD00
2F07BC00
3E1DF400
7D79F000
7FE2E000
2F43D000
00078000
000F4000
002E0000
00BC0000
02F00000
1F800000
05000000
ENDCHAR
STARTCHAR Ydieresis
ENCODING 376
SWIDTH 580 0
DWIDTH 14 0
BBX 17 29 0 -6
BITMAP
0001F42E00
0003F87F00
0002F47E00
0000501400
0000000000
007E000B40
007F001F40
003E002F00
003E007D00
00BC00BC00
00F801F800
01F403F400
03E007F000
07D00FE000
0BC02FD000
0F403F8000
2F00BF4000
3E01EF0000
7D03AE0000
7C0E3D0000
BD7CB80000
7FF0F40000
2F82E00000
0007C00000
000F400000
003E000000
00F8000000
07E0000000
2E40000000
ENDCHAR
STARTCHAR Zacute
ENCODING 377
SWIDTH 501 0
DWIDTH 12 0
BBX 16 23 -1 0
BITMAP
000000F4
000001F4
000007E0
00000E40
00000000
00E556F4
00BFFFBD
006FA4FC
000003F8
00000BE0
00002F80
0000BE00
0002F800
000BE000
001F8000
007E0000
01F80000
03F00000
0BC00000
1F400000
3D6BFD00
7FFFFF00
2E900740
ENDCHAR
STARTCHAR zacute
ENCODING 378
SWIDTH 430 0
DWIDTH 10 0
BBX 12 19 0 0
BITMAP
000018
00002E
00007D
0000B8
0002E0
000740
000000
039578
03FFFC
0055F8
0007E0
002F80
00BE00
02F400
0BD000
2F0000
7D6900
BFFF80
795680
ENDCHAR
STARTCHAR Zdotaccent
ENCODING 379
SWIDTH 501 0
DWIDTH 12 0
BBX 16 23 -1 0
BITMAP
00002E00
0000BF00
00007E00
00001400
00000000
00E556F4
00BFFFBD
006FA4FC
000003F8
00000BE0
00002F80
0000BE00
0002F800
000BE000
001F8000
007E0000
01F80000
03F00000
0BC00000
1F405000
3D6BFD00
7FFFFF00
2E900740
ENDCHAR
STARTCHAR zdotaccent
ENCODING 380
SWIDTH 430 0
DWIDTH 10 0
BBX 11 18 0 0
BITMAP
000BC0
000FD0
000FC0
000100
000000
000000
039578
03FFFC
0055F8
0007E0
002F80
00BE00
02F400
0BD000
2F0000
7D6900
BFFF80
795680
ENDCHAR
STARTCHAR Zcaron
ENCODING 381
SWIDTH 501 0
DWIDTH 12 0
BBX 16 23 -1 0
BITMAP
0001E01D
0000F8BD
00007FE0
00002900
00000000
00E556F4
00BFFFBD
006FA4FC
000003F8
00000BE0
00002F80
0000BE00
0002F800
000BE000
001F8000
007E0000
01F80000
03F00000
0BC00000
1F400000
3D6BFD00
7FFFFF00
2E900740
ENDCHAR
STARTCHAR zcaron
ENCODING 382
SWIDTH 430 0
DWIDTH 10 0
BBX 13 18 0 0
BITMAP
00280280
003D0B80
002E7E00
001FE000
000A0000
00000000
03957800
03FFFC00
0055F800
0007E000
002F8000
00BE0000
02F40000
0BD00000
2F000000
7D690000
BFFF8000
79568000
ENDCHAR
STARTCHAR florin
ENCODING 402
SWIDTH 466 0
DWIDTH 11 0
BBX 19 26 -5 -6
BITMAP
0000000BE0
0000002E68
000000782C
000000F43C
000002E0BC
000003D2F4
000007C1E0
00000F8000
00001F4000
00006FFD00
0002FFFD00
0003FD0000
00007C0000
0000BC0000
0000F80000
0001F40000
0001F00000
0002E00000
0003E00000
0007D00000
000BC00000
000F400000
281F000000
7C3E000000
7EB8000000
1BE0000000
ENDCHAR
STARTCHAR AEacute
ENCODING 508
SWIDTH 878 0
DWIDTH 21 0
BBX 25 24 -2 0
BITMAP
00000000004000
0000000003D000
0000000007D000
000000001F8000
00000000390000
00000000000000
0000001BEBFE00
000000BFFF9780
000002F6F803C0
00000BC7E007C0
00002F0BC01F80
00007D1F80BF00
0000F41F40FC00
0002E01F401000
0007C01F400000
000FFFFFFE0000
00BFFFFFF90000
00BD002F800000
00B8007E000000
01F000FC004000
03D000F801D000
0B8000F807C000
6F0000BEBF4000
B900001BE80000
ENDCHAR
STARTCHAR aeacute
ENCODING 509
SWIDTH 770 0
DWIDTH 19 0
BBX 17 19 1 0
BITMAP
0000024000
000003D000
00000BC000
00001F4000
00003D0000
0000A40000
0000000000
006F5EBE00
02F6FF9F80
0BC0FE0BC0
1F40FC0BC0
3E01F81F80
BC02F07F40
F803F6FD00
F80BFF9000
F41FE00000
F83AF00A00
BDE1F9BD00
2F406FE400
ENDCHAR
STARTCHAR Scommaaccent
ENCODING 536
SWIDTH 474 0
DWIDTH 11 0
BBX 13 24 0 -6
BITMAP
0006F900
002E5B40
00B80380
01F003C0
03E007C0
07D00FC0
07E02F40
07E07E00
03F41400
02F80000
00FE0000
007F0000
001F8000
2C0F8000
7C0B8000
7C0B4000
3E6D0000
1BE40000
00000000
07800000
0BD00000
07C00000
0B400000
19000000
ENDCHAR
STARTCHAR scommaaccent
ENCODING 537
SWIDTH 423 0
DWIDTH 10 0
BBX 10 18 0 -6
BITMAP
00BF80
02E6F0
07C1F0
0BC1E0
0BD000
03F400
02F800
00BD00
247E00
B83D00
BEB800
2F9000
000000
1F0000
1F4000
0F0000
2D0000
740000
ENDCHAR
STARTCHAR dotlessj
ENCODING 567
SWIDTH 277 0
DWIDTH 7 0
BBX 10 18 -4 -6
BITMAP
0007E0
0007E0
0003E0
0003D0
0007D0
000BC0
000F80
001F40
001F00
002E00
007D00
00B800
00F400
02E000
07C000
0F4000
7D0000
E40000
ENDCHAR
STARTCHAR circumflex
ENCODING 710
SWIDTH 354 0
DWIDTH 9 0
BBX 9 5 0 13
BITMAP
002D00
00BD00
07EE00
2F5F00
B80B40
ENDCHAR
STARTCHAR caron
ENCODING 711
SWIDTH 381 0
DWIDTH 9 0
BBX 8 5 1 13
BITMAP
A407
B82F
3DB8
3F90
1900
ENDCHAR
STARTCHAR breve
ENCODING 728
SWIDTH 344 0
DWIDTH 8 0
BBX 8 5 1 13
BITMAP
7009
F41D
B874
7FD0
0500
ENDCHAR
STARTCHAR dotaccent
ENCODING 729
SWIDTH 217 0
DWIDTH 5 0
BBX 5 4 1 14
BITMAP
2E00
7F40
3E00
1400
ENDCHAR
STARTCHAR ring
ENCODING 730
SWIDTH 402 0
DWIDTH 10 0
BBX 7 7 3 12
BITMAP
0BE0
3DB4
B478
B4B8
B5F0
7FD0
0500
ENDCHAR
STARTCHAR ogonek
ENCODING 731
SWIDTH 311 0
DWIDTH 7 0
BBX 6 8 1 -6
BITMAP
0060
0780
1E00
3C00
B800
F940
BE00
1000
ENDCHAR
STARTCHAR tilde
ENCODING 732
SWIDTH 397 0
DWIDTH 10 0
BBX 10 4 1 14
BITMAP
0BD050
2FF5D0
75FF80
507E00
ENDCHAR
STARTCHAR hungarumlaut
ENCODING 733
SWIDTH 392 0
DWIDTH 9 0
BBX 10 6 0 13
BITMAP
008090
02D1E0
03D3D0
0B8780
2E1E00
743800
ENDCHAR
STARTCHAR pi
ENCODING 960
SWIDTH 640 0
DWIDTH 15 0
BBX 17 12 -1 0
BITMAP
00BFFFFF80
03FFFFFF00
010B57E400
000E03D000
002D0BC000
003C0F8000
00B81F4000
01F01F0000
03E02E0000
0BC02E1000
7F402FE000
2D000B8000
ENDCHAR
STARTCHAR uni1E02
ENCODING 7682
SWIDTH 551 0
DWIDTH 13 0
BBX 14 23 1 0
BITMAP
0000B800
0001FC00
0001F800
00005000
00000000
01AFF900
1FF96F40
2E4007C0
04F403D0
02F807D0
03F00BC0
0BD01F80
0F807E00
1F57F800
3FFFD000
3E96E000
7C00F400
B800B800
B400F800
F402F000
B40BD000
7EBF4000
2FE40000
ENDCHAR
STARTCHAR uni1E03
ENCODING 7683
SWIDTH 525 0
DWIDTH 13 0
BBX 13 20 1 0
BITMAP
00500000
00F40000
01F42E00
01F07F40
02E03F00
03D01400
07C00000
0B800000
0F5BD000
1F7AF400
2FD0F800
3F40F800
7E00F800
BD01F800
B802F400
F403E000
F00BD000
F02F4000
7AFD0000
1FE00000
ENDCHAR
STARTCHAR uni1E0A
ENCODING 7690
SWIDTH 630 0
DWIDTH 15 0
BBX 15 23 1 0
BITMAP
00007D00
0000FE00
0000BD00
00001400
00000000
06BFE400
1FE96F40
0B4007D0
006801F0
00FC00F4
01F800F8
03F000F4
07D001F4
0FC002F0
1F8003F0
2F400BD0
3E000F80
7D003F40
BC00BD00
BC02F400
F81FD000
B9BE0000
2FA00000
ENDCHAR
STARTCHAR uni1E0B
ENCODING 7691
SWIDTH 557 0
DWIDTH 13 0
BBX 15 20 1 0
BITMAP
00000050
000000F4
00B801F0
02FC03E0
01F807D0
00500BC0
00000F80
00001F40
002FAF00
01F9FE00
07D0BD00
1F40BC00
3E00F800
7D01F400
BC03F000
F807E000
F80FE000
F82AE100
BDA2FE00
2F80B800
ENDCHAR
STARTCHAR uni1E1E
ENCODING 7710
SWIDTH 518 0
DWIDTH 12 0
BBX 14 23 1 0
BITMAP
00007D00
0000BE00
00007D00
00001400
00000000
1BFA5060
7FFFFFE0
BE5BEF80
B80F4000
201F0000
003E0000
007D0000
00BC0000
00FFF400
0BFFF800
0BF50000
03E00000
07D00000
0FC00000
1F400000
3E000000
BC000000
E0000000
ENDCHAR
STARTCHAR uni1E1F
ENCODING 7711
SWIDTH 393 0
DWIDTH 9 0
BBX 14 27 -1 -3
BITMAP
00001400
0000FD00
0000FD00
00007800
00002F80
0000F6E0
0002E1F0
0007C2E0
000B87D0
000F4280
001F4000
002F0000
002E0000
007FF800
07FFFC00
06F80000
00F40000
01F40000
02F00000
03E00000
07D00000
0BC00000
0F800000
1F400000
2F000000
7D000000
78000000
ENDCHAR
STARTCHAR uni1E40
ENCODING 7744
SWIDTH 931 0
DWIDTH 22 0
BBX 26 23 -3 0
BITMAP
0000000002E000
0000000007F400
0000000003F000
00000000014000
00000000000000
0000001F4007D0
000000BF802FD0
000003DF40BBC0
00000B2E02DB80
00002D3D078F40
0000787C0F5F00
0000B4B81E3E00
0001E0F83C7D00
0003C1F4B4BC00
000B82F0F0F800
000F02E2D0F400
002E03E3C1F000
007C03DB42F000
00F403DF02E000
02E003FD03E000
07D003F803E100
1F4003F002FF40
7D0002D000BD00
ENDCHAR
STARTCHAR uni1E41
ENCODING 7745
SWIDTH 814 0
DWIDTH 20 0
BBX 19 18 0 0
BITMAP
000007D000
00000BF000
000007E000
0000014000
0000000000
0000000000
07E06E02E0
03F1FF0FF8
02E79F39F8
03DE0EA1F4
07E81FC2F0
0BF03F47D0
0FD07E0BC0
2F40FC0F80
3E01F41F00
7D02E01F10
F803D01FF0
B402800B90
ENDCHAR
STARTCHAR uni1E56
ENCODING 7766
SWIDTH 553 0
DWIDTH 13 0
BBX 16 23 -1 0
BITMAP
000002E0
000007F4
000003F0
00000140
00000000
001AFF90
00BF95F8
01F8003D
0057802E
000F802F
001F403E
002F00BD
003E02F8
007D1FE0
00BEFF40
00FFE400
02F00000
03E00000
07D00000
0F800000
1F000000
7D000000
B4000000
ENDCHAR
STARTCHAR uni1E57
ENCODING 7767
SWIDTH 550 0
DWIDTH 13 0
BBX 15 24 -2 -6
BITMAP
00002E00
00007F40
00003F00
00000400
00000000
00000000
00B81F80
00BDB6E0
007FC1F4
007F41F4
00BD01F4
00FC02F0
01F403E0
02F00BD0
02F01F80
03F07E00
07FAF800
0B9F9000
0F400000
1F000000
2E000000
3D000000
BC000000
74000000
ENDCHAR
STARTCHAR uni1E60
ENCODING 7776
SWIDTH 474 0
DWIDTH 11 0
BBX 13 23 0 0
BITMAP
00007D00
0000BE00
00007D00
00001400
00000000
0006F900
002E5B40
00B80380
01F003C0
03E007C0
07D00FC0
07E02F40
07E07E00
03F41400
02F80000
00FE0000
007F0000
001F8000
2C0F8000
7C0B8000
7C0B4000
3E6D0000
1BE40000
ENDCHAR
STARTCHAR uni1E61
ENCODING 7777
SWIDTH 423 0
DWIDTH 10 0
BBX 10 18 0 0
BITMAP
0002E0
0007F0
0007E0
000140
000000
000000
00BF80
02E6F0
07C1F0
0BC1E0
0BD000
03F400
02F800
00BD00
247E00
B83D00
BEB800
2F9000
ENDCHAR
STARTCHAR uni1E6A
ENCODING 7786
SWIDTH 430 0
DWIDTH 10 0
BBX 14 23 1 0
BITMAP
0001F400
0002FC00
0001F800
00005000
00000000
1BF94090
7FFFFFD0
FD5BFF40
F40F4000
601F0000
003F0000
007E0000
007D0000
00BC0000
00F80000
01F40000
02F00000
03E00000
07C00000
0F800000
1F000000
7D000000
F4000000
ENDCHAR
STARTCHAR uni1E6B
ENCODING 7787
SWIDTH 358 0
DWIDTH 9 0
BBX 8 19 2 0
BITMAP
007D
00BE
00BD
0064
01F0
03E0
07D0
BFFE
2F54
2F00
3E00
7D00
BC00
B800
F400
F400
F4B0
FFD0
7E40
ENDCHAR
STARTCHAR Wgrave
ENCODING 7808
SWIDTH 941 0
DWIDTH 23 0
BBX 23 24 1 0
BITMAP
000000100000
000000F40000
000001F80000
000000BD0000
0000001B0000
000000000000
06F4000001F4
3FFD000002F8
2E6E000001FC
003E000400FC
00BD007E00FC
01F802F800F8
02F40BF000F8
07E02FE001F4
0BD0BFC002F0
0F81FF8003E0
1F47DF4007C0
2E0F5F000F80
3D2D2F002F00
7D782E007D00
7CF02E00F400
7ED02F07D000
3F801FAF4000
1E0007E40000
ENDCHAR
STARTCHAR wgrave
ENCODING 7809
SWIDTH 750 0
DWIDTH 18 0
BBX 17 19 1 0
BITMAP
0000780000
0000F80000
0000F80000
0000B80000
00003C0000
00001D0000
0000000000
1F80001F00
1FC07C1F80
0B80BC0F80
0F81F40B80
1F03F00F40
2E0BD00F00
3D1FC01E00
7C3BC03C00
B8A780B400
FB87C2E000
FE03FF4000
B801F90000
ENDCHAR
STARTCHAR Wacute
ENCODING 7810
SWIDTH 941 0
DWIDTH 23 0
BBX 23 24 1 0
BITMAP
000000004000
00000000F000
00000002F000
00000007D000
0000001E0000
000000000000
06F4000001F4
3FFD000002F8
2E6E000001FC
003E000400FC
00BD007E00FC
01F802FC00F8
02F40BF400F8
07E02FE001F4
0BD07FC002F0
0F81FF8003E0
1F43DF4007C0
2F0B5F400B80
3E1E2F001F00
7D382E003D00
7CB02E00B400
7DD02E02D000
3F801F9F4000
1E0007E40000
ENDCHAR
STARTCHAR wacute
ENCODING 7811
SWIDTH 750 0
DWIDTH 18 0
BBX 17 19 1 0
BITMAP
0000024000
000007C000
00000F8000
00002F4000
00007D0000
0000E00000
0000000000
1F80001F00
1FC07C1F80
0B80BC0F80
0F81F40B80
1F03F00F40
2E0BD00F00
3D1FC01E00
7C3BC03C00
B8A780B400
FB87C2E000
FE03FF4000
B801F90000
ENDCHAR
STARTCHAR Wdieresis
ENCODING 7812
SWIDTH 941 0
DWIDTH 23 0
BBX 23 23 1 0
BITMAP
000007D0B800
00000BF1FD00
000007E0FC00
000001405000
000000000000
06F4000001F4
3FFD000002F8
2E6E000001FC
003E000400FC
00BD007E00FC
01F802F800F8
02F40BF000F8
07E02FE001F4
0BD0BFC002F0
0F81FF8003E0
1F47DF4007C0
2E0F5F000F80
3D2D2F002F00
7D782E007D00
7CF02E00F400
7ED02F07D000
3F801FAF4000
1E0007E40000
ENDCHAR
STARTCHAR wdieresis
ENCODING 7813
SWIDTH 750 0
DWIDTH 18 0
BBX 17 18 1 0
BITMAP
0007D1F800
000FE2FC00
000BD1F800
0001405000
0000000000
0000000000
1F80001F00
1FC07C1F80
0B80BC0F80
0F81F40B80
1F03F00F40
2E0BD00F00
3D1FC01E00
7C3BC03C00
B8A780B400
FB87C2E000
FE03FF4000
B801F90000
ENDCHAR
STARTCHAR Ygrave
ENCODING 7922
SWIDTH 580 0
DWIDTH 14 0
BBX 17 30 0 -6
BITMAP
0000140000
00007C0000
00007E0000
00001F4000
0000014000
0000000000
007E000B40
007F001F40
003E002F00
003E007D00
00BC00BC00
00F801F800
01F403F400
03E007F000
07D00FE000
0BC02FD000
0F403F8000
2F00BF4000
3E01EF0000
7D03AE0000
7C0E3D0000
BD7CB80000
7FF0F40000
2F82E00000
0007C00000
000F400000
003E000000
00F8000000
07E0000000
2E40000000
ENDCHAR
STARTCHAR ygrave
ENCODING 7923
SWIDTH 549 0
DWIDTH 13 0
BBX 13 26 0 -7
BITMAP
0001D000
0003E000
0003E000
0002E000
0001E000
00007000
00000000
02E00380
02F40BC0
02F01F80
03E02F40
07D07F00
0BC0FE00
1F42FD00
2F07BC00
3E1DF400
7D79F000
7FE2E000
2F43D000
00078000
000F4000
002E0000
00BC0000
02F00000
1F800000
05000000
ENDCHAR
STARTCHAR endash
ENCODING 8211
SWIDTH 751 0
DWIDTH 18 0
BBX 15 2 2 6
BITMAP
7FFFFFF4
BFFFFFE0
ENDCHAR
STARTCHAR emdash
ENCODING 8212
SWIDTH 1066 0
DWIDTH 26 0
BBX 22 2 2 6
BITMAP
7FFFFFFFFFF0
BFFFFFFFFFD0
ENDCHAR
STARTCHAR quoteleft
ENCODING 8216
SWIDTH 268 0
DWIDTH 6 0
BBX 5 6 3 14
BITMAP
0740
2D00
7C00
B800
BD00
7800
ENDCHAR
STARTCHAR quoteright
ENCODING 8217
SWIDTH 268 0
DWIDTH 6 0
BBX 5 6 3 13
BITMAP
1F00
1F80
0F80
0F40
2D00
7400
ENDCHAR
STARTCHAR quotesinglbase
ENCODING 8218
SWIDTH 268 0
DWIDTH 6 0
BBX 5 6 0 -3
BITMAP
2E00
2F40
1F00
1E00
3D00
A400
ENDCHAR
STARTCHAR quotedblleft
ENCODING 8220
SWIDTH 485 0
DWIDTH 12 0
BBX 10 6 3 14
BITMAP
0681D0
1E0780
3C1E00
7C2E00
BD3F00
782E00
ENDCHAR
STARTCHAR quotedblright
ENCODING 8221
SWIDTH 480 0
DWIDTH 12 0
BBX 10 6 3 14
BITMAP
0B82D0
0FC7E0
0BC3E0
0B43C0
1E0B40
742900
ENDCHAR
STARTCHAR quotedblbase
ENCODING 8222
SWIDTH 463 0
DWIDTH 11 0
BBX 9 6 0 -3
BITMAP
2E0B40
2F4FC0
1F0B80
1E0B40
3D1E00
A43800
ENDCHAR
STARTCHAR dagger
ENCODING 8224
SWIDTH 488 0
DWIDTH 12 0
BBX 10 18 2 0
BITMAP
003D00
007E00
007E00
00BD00
6AFFF0
2FFF90
01F400
02F000
03E000
07D000
07C000
0B8000
0F4000
1E0000
2D0000
780000
B00000
900000
ENDCHAR
STARTCHAR daggerdbl
ENCODING 8225
SWIDTH 488 0
DWIDTH 12 0
BBX 11 18 1 0
BITMAP
000F40
001F80
001F80
002F40
1ABFBC
0BFFF4
007E00
00BD00
00F800
01F400
6AFBC0
2FFE40
03D000
078000
0B4000
0E0000
2C0000
240000
ENDCHAR
STARTCHAR bullet
ENCODING 8226
SWIDTH 437 0
DWIDTH 10 0
BBX 7 6 2 5
BITMAP
0BD0
3FF4
7FF4
7FF4
2FE0
0640
ENDCHAR
STARTCHAR ellipsis
ENCODING 8230
SWIDTH 810 0
DWIDTH 19 0
BBX 18 4 0 -1
BITMAP
2E01F40B80
7F43FC1FD0
7F02F81FC0
1900900640
ENDCHAR
STARTCHAR perthousand
ENCODING 8240
SWIDTH 1184 0
DWIDTH 28 0
BBX 25 18 2 0
BITMAP
06E40074000000
2F7C01F0000000
7C3D03D0000000
F83D0B80000000
F47D1F00000000
F0BC3D00000000
F5F4B800000000
7FD1F000000000
0503D000000000
000B8000000000
001F06F801BE00
003D1F6E07DB40
00B83D1F1F4B80
01F07C2F2E0B80
03D0B83E3D0F40
0B80B87D3D2F00
1E007DF42EBD00
38002F900BE400
ENDCHAR
STARTCHAR guilsinglleft
ENCODING 8249
SWIDTH 413 0
DWIDTH 10 0
BBX 8 10 1 2
BITMAP
0006
007D
02F4
1F80
7E00
3E00
0F80
07E0
01F4
0050
ENDCHAR
STARTCHAR guilsinglright
ENCODING 8250
SWIDTH 416 0
DWIDTH 10 0
BBX 8 10 1 2
BITMAP
1E00
0F80
03E0
01F8
007D
00FD
07E0
2F40
7400
4000
ENDCHAR
STARTCHAR fraction
ENCODING 8260
SWIDTH 580 0
DWIDTH 14 0
BBX 14 20 0 0
BITMAP
00000040
000002D0
00000B80
00000F40
00002E00
00007C00
0000F400
0001E000
0003D000
000B8000
001F0000
002D0000
007C0000
00F40000
02E00000
03C00000
0B800000
1F000000
3D000000
78000000
ENDCHAR
STARTCHAR Euro
ENCODING 8364
SWIDTH 622 0
DWIDTH 15 0
BBX 15 18 1 0
BITMAP
00001BE0
0001FDB4
0007E03C
001F807C
003F01F8
00BD03F4
01F803E0
02F40040
1FFFE000
0BE50000
0BD00000
7FFF8000
0FD40000
0BC00000
0BC00000
07D01D00
02F5BD00
006FE000
ENDCHAR
STARTCHAR trademark
ENCODING 8482
SWIDTH 1084 0
DWIDTH 26 0
BBX 20 11 4 8
BITMAP
0500000000
BFFFD2E07D
ABEA4BE1FD
03C01ED2BC
07803AD77C
0F4076CA78
0F00F3DC78
1E01D3F8B8
1E0383F0B8
1F4B42D07C
0504004014
ENDCHAR
STARTCHAR Omega
ENCODING 8486
SWIDTH 839 0
DWIDTH 20 0
BBX 18 19 1 0
BITMAP
0000500000
001BFF8000
01FD56F400
07E000BD00
0FC0002F00
1F40000F80
3F00000BC0
3E00000BD0
7E000007D0
7E000007D0
3E00000BD0
3F00000BC0
2F40000F80
0F80002F40
07D0003E00
02F000B800
60B801E060
BEBD07EBF0
7FFF0BFFE0
ENDCHAR
STARTCHAR partialdiff
ENCODING 8706
SWIDTH 580 0
DWIDTH 14 0
BBX 14 20 0 0
BITMAP
00005400
0002FF40
000F87C0
001F42D0
000F01E0
000001E0
000551E0
007FFAE0
01FD1FE0
07F00BD0
0FD00BC0
1F800F80
3F402F40
3F003F00
7E007E00
7D00FC00
7D02F400
3D0BD000
2F6F4000
0BF80000
ENDCHAR
STARTCHAR Delta
ENCODING 8710
SWIDTH 663 0
DWIDTH 16 0
BBX 15 15 0 0
BITMAP
00004000
0002E000
0007F000
000EF800
001D7C00
00383D00
00B42F00
00E00F40
02C00BC0
078007D0
0B0002E0
1D0001F4
2C0000B8
795555BC
BFFFFFF8
ENDCHAR
STARTCHAR product
ENCODING 8719
SWIDTH 667 0
DWIDTH 16 0
BBX 13 21 2 -2
BITMAP
05555500
7FFFFF40
F4001F40
F4001F40
F4001F40
F4001F40
F4001F40
F4001F40
F4001F40
F4001F40
F4001F40
F4001F40
F4001F40
F4001F40
F4001F40
F4001F40
F4001F40
F4001F40
F4001F40
F4001F40
E0001E00
ENDCHAR
STARTCHAR summation
ENCODING 8721
SWIDTH 677 0
DWIDTH 16 0
BBX 14 22 1 -3
BITMAP
01555540
1FFFFFE0
2F955540
2FC00000
0FE00000
07F40000
02FC0000
00FE0000
007F4000
001FC000
000BD000
000BC000
001F0000
007D0000
00F40000
03E00000
0B800000
2F000000
7D000000
FFFFFFC0
FFFFFF80
15555400
ENDCHAR
STARTCHAR minus
ENCODING 8722
SWIDTH 617 0
DWIDTH 15 0
BBX 13 2 1 8
BITMAP
2AAAAA40
7FFFFF00
ENDCHAR
STARTCHAR radical
ENCODING 8730
SWIDTH 709 0
DWIDTH 17 0
BBX 18 23 1 0
BITMAP
0000000060
00000000F0
00000002E0
00000003E0
0000000BD0
0000000F80
0000002F00
0000003D00
000000BC00
000000F400
000002E000
0A4003D000
2FC00B8000
BFD00F0000
93D02D0000
03E07C0000
02E0B40000
01F1E00000
01F6D00000
00FB800000
00BF000000
007D000000
0078000000
ENDCHAR
STARTCHAR infinity
ENCODING 8734
SWIDTH 681 0
DWIDTH 16 0
BBX 15 8 1 5
BITMAP
01400500
1FF4BFD0
7EBEFEB4
B80FE074
B01F8074
B4BFD1F4
3FF8BFE0
0A902A40
ENDCHAR
STARTCHAR integral
ENCODING 8747
SWIDTH 583 0
DWIDTH 14 0
BBX 19 28 -2 -5
BITMAP
0000000680
0000001FF0
0000007D38
000000F838
000002F0B8
000003D1F4
00000BC1E0
00000F8000
00001F4000
00002F0000
00003E0000
00007D0000
0000BC0000
0000F80000
0000F80000
0001F40000
0002F00000
0003E00000
0007D00000
000BC00000
000F800000
281F400000
7D2F000000
F87D000000
F0B8000000
A2F4000000
7FD0000000
1A40000000
ENDCHAR
STARTCHAR approxequal
ENCODING 8776
SWIDTH 671 0
DWIDTH 16 0
BBX 14 11 1 3
BITMAP
00640010
03FF4070
0FBFD0E0
2D0BFBC0
3402FE00
00005400
02F80090
1FFE01D0
3D7F9780
701FFF00
5006F800
ENDCHAR
STARTCHAR notequal
ENCODING 8800
SWIDTH 617 0
DWIDTH 15 0
BBX 13 16 1 1
BITMAP
00000600
00001E00
00003C00
0000B400
0001F000
2FFFFF80
2AAFAA40
001F0000
002D0000
15BD5500
7FFFFF40
16E55500
07C00000
0B400000
2E000000
24000000
ENDCHAR
STARTCHAR lessequal
ENCODING 8804
SWIDTH 704 0
DWIDTH 17 0
BBX 13 16 1 0
BITMAP
00000740
00007F00
0006F400
002F8000
02F90000
1FD00000
BF000000
2FD00000
02F90000
006F8000
0007F400
00007E00
00000600
00000000
2AAAAA40
7FFFFF40
ENDCHAR
STARTCHAR greaterequal
ENCODING 8805
SWIDTH 617 0
DWIDTH 15 0
BBX 13 16 1 0
BITMAP
78000000
2F800000
06F40000
007F4000
000BE400
0000BE00
00007F40
0006F800
002F9000
01F90000
1BD00000
7D000000
60000000
00000000
2AAAAA00
7FFFFE00
ENDCHAR
STARTCHAR lozenge
ENCODING 9674
SWIDTH 580 0
DWIDTH 14 0
BBX 12 18 1 0
BITMAP
003C00
00BD00
01FF00
03CB80
0B83D0
0F01F0
2D00B4
78007C
B0002E
B4001E
7C003C
2E00B4
0F41E0
0783D0
02D780
01FF00
00BD00
003800
ENDCHAR
STARTCHAR commaaccent
ENCODING 63171
SWIDTH 250 0
DWIDTH 6 0
BBX 4 5 1 -6
BITMAP
2D
3E
2E
3C
A0
ENDCHAR
STARTCHAR ff
ENCODING 64256
SWIDTH 773 0
DWIDTH 19 0
BBX 23 23 -1 -3
BITMAP
00006F800BE0
0000F6E03EB8
0002E1F0B87C
0007C2E0F4BC
000B87D1F1F8
000F8282E0A0
001F4003D000
002F0007C000
002E000B8000
007FBFFFFE00
07FFFFFFFF00
0EF9402F0000
00F4003E0000
01F4007D0000
02F0007C0000
03E000B80000
07D000F40000
0BC001F00000
0F8002E00000
1F4007D00000
2F000BC00000
7D000F800000
78001E000000
ENDCHAR
STARTCHAR fi
ENCODING 64257
SWIDTH 623 0
DWIDTH 15 0
BBX 17 23 -1 -3
BITMAP
00000BF800
00007E5F00
0000F80B40
0002E00B80
0007D00F80
000B802F40
001F402E00
002F000000
003FAFFC00
06FFA5BC00
0FFC00BC00
04B800F800
00F401F400
01F002E000
02E003D000
03E007C000
07D00B8000
0BC00F8000
0F800FF400
1F4007E000
2E00000000
7D00000000
7800000000
ENDCHAR
STARTCHAR fl
ENCODING 64258
SWIDTH 637 0
DWIDTH 15 0
BBX 17 23 -1 -3
BITMAP
00000BF900
00007E5F40
0000F80B80
0002F00B80
0007D00B80
000B800F40
000F401F00
002F002F00
003E003E00
007FF47D00
06FFFCBC00
0BFD40F800
00F801F400
01F402F000
02F003E000
03E007D000
07D00BC000
0BC00BC400
0F8007F800
1F4002E000
2E00000000
7D00000000
7800000000
ENDCHAR
STARTCHAR .notdef
ENCODING -1
SWIDTH 896 0
DWIDTH 22 0
BBX 23 22 1 -1
BITMAP
000BFFFFFFF4
001FFFFFFFF8
002FFFFFFFF4
003FFFFFFFF0
007FFBFFBFE0
00BF83F41FD0
00FF43D0BFC0
01FF4343FF80
01FF421FFF80
02FF803FFF40
03FF80FFFF00
07FFC1FFFE00
0BFF40FFFD00
0FFE107FFC00
1FF8342AF800
2FE0FC02F400
2FD7FE5BF400
3FFFFFFFF000
7FFFFFFFE000
BFFFFFFFC000
7FFFFFFF8000
055555540000
ENDCHAR
ENDFONT
